%TF.GenerationSoftware,KiCad,Pcbnew,7.0.8*%
%TF.CreationDate,2023-10-30T23:16:16-04:00*%
%TF.ProjectId,easy_optical_pcb,65617379-5f6f-4707-9469-63616c5f7063,rev?*%
%TF.SameCoordinates,Original*%
%TF.FileFunction,Legend,Bot*%
%TF.FilePolarity,Positive*%
%FSLAX46Y46*%
G04 Gerber Fmt 4.6, Leading zero omitted, Abs format (unit mm)*
G04 Created by KiCad (PCBNEW 7.0.8) date 2023-10-30 23:16:16*
%MOMM*%
%LPD*%
G01*
G04 APERTURE LIST*
%ADD10C,0.150000*%
%ADD11C,0.120000*%
%ADD12C,0.400000*%
G04 APERTURE END LIST*
D10*
X106864284Y-132385300D02*
X106649999Y-132313871D01*
X106649999Y-132313871D02*
X106292856Y-132313871D01*
X106292856Y-132313871D02*
X106149999Y-132385300D01*
X106149999Y-132385300D02*
X106078570Y-132456728D01*
X106078570Y-132456728D02*
X106007141Y-132599585D01*
X106007141Y-132599585D02*
X106007141Y-132742442D01*
X106007141Y-132742442D02*
X106078570Y-132885300D01*
X106078570Y-132885300D02*
X106149999Y-132956728D01*
X106149999Y-132956728D02*
X106292856Y-133028157D01*
X106292856Y-133028157D02*
X106578570Y-133099585D01*
X106578570Y-133099585D02*
X106721427Y-133171014D01*
X106721427Y-133171014D02*
X106792856Y-133242442D01*
X106792856Y-133242442D02*
X106864284Y-133385300D01*
X106864284Y-133385300D02*
X106864284Y-133528157D01*
X106864284Y-133528157D02*
X106792856Y-133671014D01*
X106792856Y-133671014D02*
X106721427Y-133742442D01*
X106721427Y-133742442D02*
X106578570Y-133813871D01*
X106578570Y-133813871D02*
X106221427Y-133813871D01*
X106221427Y-133813871D02*
X106007141Y-133742442D01*
X104435713Y-133813871D02*
X103935713Y-132313871D01*
X103935713Y-132313871D02*
X103435713Y-133813871D01*
X101007142Y-133742442D02*
X101150000Y-133813871D01*
X101150000Y-133813871D02*
X101364285Y-133813871D01*
X101364285Y-133813871D02*
X101578571Y-133742442D01*
X101578571Y-133742442D02*
X101721428Y-133599585D01*
X101721428Y-133599585D02*
X101792857Y-133456728D01*
X101792857Y-133456728D02*
X101864285Y-133171014D01*
X101864285Y-133171014D02*
X101864285Y-132956728D01*
X101864285Y-132956728D02*
X101792857Y-132671014D01*
X101792857Y-132671014D02*
X101721428Y-132528157D01*
X101721428Y-132528157D02*
X101578571Y-132385300D01*
X101578571Y-132385300D02*
X101364285Y-132313871D01*
X101364285Y-132313871D02*
X101221428Y-132313871D01*
X101221428Y-132313871D02*
X101007142Y-132385300D01*
X101007142Y-132385300D02*
X100935714Y-132456728D01*
X100935714Y-132456728D02*
X100935714Y-132956728D01*
X100935714Y-132956728D02*
X101221428Y-132956728D01*
X104643094Y-121594819D02*
X104643094Y-120594819D01*
X104643094Y-120594819D02*
X104404999Y-120594819D01*
X104404999Y-120594819D02*
X104262142Y-120642438D01*
X104262142Y-120642438D02*
X104166904Y-120737676D01*
X104166904Y-120737676D02*
X104119285Y-120832914D01*
X104119285Y-120832914D02*
X104071666Y-121023390D01*
X104071666Y-121023390D02*
X104071666Y-121166247D01*
X104071666Y-121166247D02*
X104119285Y-121356723D01*
X104119285Y-121356723D02*
X104166904Y-121451961D01*
X104166904Y-121451961D02*
X104262142Y-121547200D01*
X104262142Y-121547200D02*
X104404999Y-121594819D01*
X104404999Y-121594819D02*
X104643094Y-121594819D01*
X103119285Y-121594819D02*
X103690713Y-121594819D01*
X103404999Y-121594819D02*
X103404999Y-120594819D01*
X103404999Y-120594819D02*
X103500237Y-120737676D01*
X103500237Y-120737676D02*
X103595475Y-120832914D01*
X103595475Y-120832914D02*
X103690713Y-120880533D01*
X104885588Y-106354819D02*
X104885588Y-107164342D01*
X104885588Y-107164342D02*
X104837969Y-107259580D01*
X104837969Y-107259580D02*
X104790350Y-107307200D01*
X104790350Y-107307200D02*
X104695112Y-107354819D01*
X104695112Y-107354819D02*
X104504636Y-107354819D01*
X104504636Y-107354819D02*
X104409398Y-107307200D01*
X104409398Y-107307200D02*
X104361779Y-107259580D01*
X104361779Y-107259580D02*
X104314160Y-107164342D01*
X104314160Y-107164342D02*
X104314160Y-106354819D01*
X103314160Y-107354819D02*
X103885588Y-107354819D01*
X103599874Y-107354819D02*
X103599874Y-106354819D01*
X103599874Y-106354819D02*
X103695112Y-106497676D01*
X103695112Y-106497676D02*
X103790350Y-106592914D01*
X103790350Y-106592914D02*
X103885588Y-106640533D01*
X108272744Y-105802485D02*
X107701316Y-105802485D01*
X108387030Y-106145342D02*
X107987030Y-104945342D01*
X107987030Y-104945342D02*
X107587030Y-106145342D01*
D11*
%TO.C,D1*%
X105465000Y-125180000D02*
X105465000Y-125336000D01*
X105465000Y-122864000D02*
X105465000Y-123020000D01*
X102232666Y-125178608D02*
G75*
G03*
X105464999Y-125335515I1672334J1078608D01*
G01*
X102863871Y-125179836D02*
G75*
G03*
X104945960Y-125179999I1041129J1079836D01*
G01*
X104945960Y-123020001D02*
G75*
G03*
X102863871Y-123020164I-1040960J-1079999D01*
G01*
X105464999Y-122864485D02*
G75*
G03*
X102232666Y-123021392I-1559999J-1235515D01*
G01*
%TO.C,U1*%
X102925000Y-101630000D02*
X102925000Y-105970000D01*
X103175000Y-102750000D02*
X103875000Y-102450000D01*
X103175000Y-103450000D02*
X103875000Y-103150000D01*
X103175000Y-104050000D02*
X103875000Y-103750000D01*
X103175000Y-104750000D02*
X103875000Y-104450000D01*
X103175000Y-105350000D02*
X103875000Y-105050000D01*
X105025000Y-101600000D02*
X105025000Y-106020000D01*
X100425000Y-106100000D02*
X107625000Y-106100000D01*
X107625000Y-106100000D02*
X107625000Y-101600000D01*
X107625000Y-101600000D02*
X100425000Y-101600000D01*
X100425000Y-101600000D02*
X100425000Y-106100000D01*
D12*
X107925000Y-101500000D02*
G75*
G03*
X107925000Y-101500000I-200000J0D01*
G01*
%TD*%
M02*
