%TF.GenerationSoftware,KiCad,Pcbnew,7.0.8*%
%TF.CreationDate,2023-10-30T23:16:19-04:00*%
%TF.ProjectId,easy_optical_pcb,65617379-5f6f-4707-9469-63616c5f7063,rev?*%
%TF.SameCoordinates,Original*%
%TF.FileFunction,Drillmap*%
%TF.FilePolarity,Positive*%
%FSLAX45Y45*%
G04 Gerber Fmt 4.5, Leading zero omitted, Abs format (unit mm)*
G04 Created by KiCad (PCBNEW 7.0.8) date 2023-10-30 23:16:19*
%MOMM*%
%LPD*%
G01*
G04 APERTURE LIST*
%ADD10C,0.100000*%
%ADD11C,0.200000*%
%ADD12C,0.070000*%
%ADD13C,0.080000*%
%ADD14C,0.120000*%
%ADD15C,0.160000*%
%ADD16C,0.210000*%
G04 APERTURE END LIST*
D10*
X9892500Y-10020000D02*
X10892500Y-10020000D01*
X10892500Y-13420000D01*
X9892500Y-13420000D01*
X9892500Y-10020000D01*
D11*
D12*
X10117500Y-10221000D02*
X10187500Y-10291000D01*
X10187500Y-10221000D02*
X10117500Y-10291000D01*
X10117500Y-10475000D02*
X10187500Y-10545000D01*
X10187500Y-10475000D02*
X10117500Y-10545000D01*
X10617500Y-10221000D02*
X10687500Y-10291000D01*
X10687500Y-10221000D02*
X10617500Y-10291000D01*
X10617500Y-10475000D02*
X10687500Y-10545000D01*
X10687500Y-10475000D02*
X10617500Y-10545000D01*
D13*
X10182000Y-13000000D02*
G75*
G03*
X10182000Y-13000000I-40000J0D01*
G01*
X10303500Y-12410000D02*
G75*
G03*
X10303500Y-12410000I-40000J0D01*
G01*
X10436000Y-13000000D02*
G75*
G03*
X10436000Y-13000000I-40000J0D01*
G01*
X10557500Y-12410000D02*
G75*
G03*
X10557500Y-12410000I-40000J0D01*
G01*
X10690000Y-13000000D02*
G75*
G03*
X10690000Y-13000000I-40000J0D01*
G01*
D14*
X10402500Y-10200000D02*
X10402500Y-10320000D01*
X10342500Y-10260000D02*
X10462500Y-10260000D01*
D15*
X10459069Y-10556569D02*
X10459069Y-10443431D01*
X10345931Y-10443431D01*
X10345931Y-10556569D01*
X10459069Y-10556569D01*
D16*
X10392500Y-11745000D02*
X10497500Y-11640000D01*
X10392500Y-11535000D01*
X10287500Y-11640000D01*
X10392500Y-11745000D01*
D11*
X10148277Y-13736484D02*
X10148277Y-13536484D01*
X10148277Y-13536484D02*
X10195896Y-13536484D01*
X10195896Y-13536484D02*
X10224467Y-13546008D01*
X10224467Y-13546008D02*
X10243515Y-13565055D01*
X10243515Y-13565055D02*
X10253039Y-13584103D01*
X10253039Y-13584103D02*
X10262563Y-13622198D01*
X10262563Y-13622198D02*
X10262563Y-13650769D01*
X10262563Y-13650769D02*
X10253039Y-13688865D01*
X10253039Y-13688865D02*
X10243515Y-13707912D01*
X10243515Y-13707912D02*
X10224467Y-13726960D01*
X10224467Y-13726960D02*
X10195896Y-13736484D01*
X10195896Y-13736484D02*
X10148277Y-13736484D01*
X10348277Y-13736484D02*
X10348277Y-13603150D01*
X10348277Y-13641246D02*
X10357801Y-13622198D01*
X10357801Y-13622198D02*
X10367324Y-13612674D01*
X10367324Y-13612674D02*
X10386372Y-13603150D01*
X10386372Y-13603150D02*
X10405420Y-13603150D01*
X10472086Y-13736484D02*
X10472086Y-13603150D01*
X10472086Y-13536484D02*
X10462563Y-13546008D01*
X10462563Y-13546008D02*
X10472086Y-13555531D01*
X10472086Y-13555531D02*
X10481610Y-13546008D01*
X10481610Y-13546008D02*
X10472086Y-13536484D01*
X10472086Y-13536484D02*
X10472086Y-13555531D01*
X10595896Y-13736484D02*
X10576848Y-13726960D01*
X10576848Y-13726960D02*
X10567324Y-13707912D01*
X10567324Y-13707912D02*
X10567324Y-13536484D01*
X10700658Y-13736484D02*
X10681610Y-13726960D01*
X10681610Y-13726960D02*
X10672086Y-13707912D01*
X10672086Y-13707912D02*
X10672086Y-13536484D01*
X10929229Y-13736484D02*
X10929229Y-13536484D01*
X10929229Y-13536484D02*
X10995896Y-13679341D01*
X10995896Y-13679341D02*
X11062563Y-13536484D01*
X11062563Y-13536484D02*
X11062563Y-13736484D01*
X11243515Y-13736484D02*
X11243515Y-13631722D01*
X11243515Y-13631722D02*
X11233991Y-13612674D01*
X11233991Y-13612674D02*
X11214943Y-13603150D01*
X11214943Y-13603150D02*
X11176848Y-13603150D01*
X11176848Y-13603150D02*
X11157801Y-13612674D01*
X11243515Y-13726960D02*
X11224467Y-13736484D01*
X11224467Y-13736484D02*
X11176848Y-13736484D01*
X11176848Y-13736484D02*
X11157801Y-13726960D01*
X11157801Y-13726960D02*
X11148277Y-13707912D01*
X11148277Y-13707912D02*
X11148277Y-13688865D01*
X11148277Y-13688865D02*
X11157801Y-13669817D01*
X11157801Y-13669817D02*
X11176848Y-13660293D01*
X11176848Y-13660293D02*
X11224467Y-13660293D01*
X11224467Y-13660293D02*
X11243515Y-13650769D01*
X11338753Y-13603150D02*
X11338753Y-13803150D01*
X11338753Y-13612674D02*
X11357801Y-13603150D01*
X11357801Y-13603150D02*
X11395896Y-13603150D01*
X11395896Y-13603150D02*
X11414943Y-13612674D01*
X11414943Y-13612674D02*
X11424467Y-13622198D01*
X11424467Y-13622198D02*
X11433991Y-13641246D01*
X11433991Y-13641246D02*
X11433991Y-13698388D01*
X11433991Y-13698388D02*
X11424467Y-13717436D01*
X11424467Y-13717436D02*
X11414943Y-13726960D01*
X11414943Y-13726960D02*
X11395896Y-13736484D01*
X11395896Y-13736484D02*
X11357801Y-13736484D01*
X11357801Y-13736484D02*
X11338753Y-13726960D01*
X11519705Y-13717436D02*
X11529229Y-13726960D01*
X11529229Y-13726960D02*
X11519705Y-13736484D01*
X11519705Y-13736484D02*
X11510182Y-13726960D01*
X11510182Y-13726960D02*
X11519705Y-13717436D01*
X11519705Y-13717436D02*
X11519705Y-13736484D01*
X11519705Y-13612674D02*
X11529229Y-13622198D01*
X11529229Y-13622198D02*
X11519705Y-13631722D01*
X11519705Y-13631722D02*
X11510182Y-13622198D01*
X11510182Y-13622198D02*
X11519705Y-13612674D01*
X11519705Y-13612674D02*
X11519705Y-13631722D01*
D12*
X9817500Y-14030000D02*
X9887500Y-14100000D01*
X9887500Y-14030000D02*
X9817500Y-14100000D01*
D11*
X10186372Y-13956484D02*
X10205420Y-13956484D01*
X10205420Y-13956484D02*
X10224467Y-13966008D01*
X10224467Y-13966008D02*
X10233991Y-13975531D01*
X10233991Y-13975531D02*
X10243515Y-13994579D01*
X10243515Y-13994579D02*
X10253039Y-14032674D01*
X10253039Y-14032674D02*
X10253039Y-14080293D01*
X10253039Y-14080293D02*
X10243515Y-14118388D01*
X10243515Y-14118388D02*
X10233991Y-14137436D01*
X10233991Y-14137436D02*
X10224467Y-14146960D01*
X10224467Y-14146960D02*
X10205420Y-14156484D01*
X10205420Y-14156484D02*
X10186372Y-14156484D01*
X10186372Y-14156484D02*
X10167324Y-14146960D01*
X10167324Y-14146960D02*
X10157801Y-14137436D01*
X10157801Y-14137436D02*
X10148277Y-14118388D01*
X10148277Y-14118388D02*
X10138753Y-14080293D01*
X10138753Y-14080293D02*
X10138753Y-14032674D01*
X10138753Y-14032674D02*
X10148277Y-13994579D01*
X10148277Y-13994579D02*
X10157801Y-13975531D01*
X10157801Y-13975531D02*
X10167324Y-13966008D01*
X10167324Y-13966008D02*
X10186372Y-13956484D01*
X10338753Y-14137436D02*
X10348277Y-14146960D01*
X10348277Y-14146960D02*
X10338753Y-14156484D01*
X10338753Y-14156484D02*
X10329229Y-14146960D01*
X10329229Y-14146960D02*
X10338753Y-14137436D01*
X10338753Y-14137436D02*
X10338753Y-14156484D01*
X10414944Y-13956484D02*
X10548277Y-13956484D01*
X10548277Y-13956484D02*
X10462563Y-14156484D01*
X10662563Y-13956484D02*
X10681610Y-13956484D01*
X10681610Y-13956484D02*
X10700658Y-13966008D01*
X10700658Y-13966008D02*
X10710182Y-13975531D01*
X10710182Y-13975531D02*
X10719705Y-13994579D01*
X10719705Y-13994579D02*
X10729229Y-14032674D01*
X10729229Y-14032674D02*
X10729229Y-14080293D01*
X10729229Y-14080293D02*
X10719705Y-14118388D01*
X10719705Y-14118388D02*
X10710182Y-14137436D01*
X10710182Y-14137436D02*
X10700658Y-14146960D01*
X10700658Y-14146960D02*
X10681610Y-14156484D01*
X10681610Y-14156484D02*
X10662563Y-14156484D01*
X10662563Y-14156484D02*
X10643515Y-14146960D01*
X10643515Y-14146960D02*
X10633991Y-14137436D01*
X10633991Y-14137436D02*
X10624467Y-14118388D01*
X10624467Y-14118388D02*
X10614944Y-14080293D01*
X10614944Y-14080293D02*
X10614944Y-14032674D01*
X10614944Y-14032674D02*
X10624467Y-13994579D01*
X10624467Y-13994579D02*
X10633991Y-13975531D01*
X10633991Y-13975531D02*
X10643515Y-13966008D01*
X10643515Y-13966008D02*
X10662563Y-13956484D01*
X10853039Y-13956484D02*
X10872086Y-13956484D01*
X10872086Y-13956484D02*
X10891134Y-13966008D01*
X10891134Y-13966008D02*
X10900658Y-13975531D01*
X10900658Y-13975531D02*
X10910182Y-13994579D01*
X10910182Y-13994579D02*
X10919705Y-14032674D01*
X10919705Y-14032674D02*
X10919705Y-14080293D01*
X10919705Y-14080293D02*
X10910182Y-14118388D01*
X10910182Y-14118388D02*
X10900658Y-14137436D01*
X10900658Y-14137436D02*
X10891134Y-14146960D01*
X10891134Y-14146960D02*
X10872086Y-14156484D01*
X10872086Y-14156484D02*
X10853039Y-14156484D01*
X10853039Y-14156484D02*
X10833991Y-14146960D01*
X10833991Y-14146960D02*
X10824467Y-14137436D01*
X10824467Y-14137436D02*
X10814944Y-14118388D01*
X10814944Y-14118388D02*
X10805420Y-14080293D01*
X10805420Y-14080293D02*
X10805420Y-14032674D01*
X10805420Y-14032674D02*
X10814944Y-13994579D01*
X10814944Y-13994579D02*
X10824467Y-13975531D01*
X10824467Y-13975531D02*
X10833991Y-13966008D01*
X10833991Y-13966008D02*
X10853039Y-13956484D01*
X11005420Y-14156484D02*
X11005420Y-14023150D01*
X11005420Y-14042198D02*
X11014944Y-14032674D01*
X11014944Y-14032674D02*
X11033991Y-14023150D01*
X11033991Y-14023150D02*
X11062563Y-14023150D01*
X11062563Y-14023150D02*
X11081610Y-14032674D01*
X11081610Y-14032674D02*
X11091134Y-14051722D01*
X11091134Y-14051722D02*
X11091134Y-14156484D01*
X11091134Y-14051722D02*
X11100658Y-14032674D01*
X11100658Y-14032674D02*
X11119705Y-14023150D01*
X11119705Y-14023150D02*
X11148277Y-14023150D01*
X11148277Y-14023150D02*
X11167325Y-14032674D01*
X11167325Y-14032674D02*
X11176848Y-14051722D01*
X11176848Y-14051722D02*
X11176848Y-14156484D01*
X11272086Y-14156484D02*
X11272086Y-14023150D01*
X11272086Y-14042198D02*
X11281610Y-14032674D01*
X11281610Y-14032674D02*
X11300658Y-14023150D01*
X11300658Y-14023150D02*
X11329229Y-14023150D01*
X11329229Y-14023150D02*
X11348277Y-14032674D01*
X11348277Y-14032674D02*
X11357801Y-14051722D01*
X11357801Y-14051722D02*
X11357801Y-14156484D01*
X11357801Y-14051722D02*
X11367324Y-14032674D01*
X11367324Y-14032674D02*
X11386372Y-14023150D01*
X11386372Y-14023150D02*
X11414943Y-14023150D01*
X11414943Y-14023150D02*
X11433991Y-14032674D01*
X11433991Y-14032674D02*
X11443515Y-14051722D01*
X11443515Y-14051722D02*
X11443515Y-14156484D01*
X11833991Y-13946960D02*
X11662563Y-14204103D01*
X12091134Y-13956484D02*
X12110182Y-13956484D01*
X12110182Y-13956484D02*
X12129229Y-13966008D01*
X12129229Y-13966008D02*
X12138753Y-13975531D01*
X12138753Y-13975531D02*
X12148277Y-13994579D01*
X12148277Y-13994579D02*
X12157801Y-14032674D01*
X12157801Y-14032674D02*
X12157801Y-14080293D01*
X12157801Y-14080293D02*
X12148277Y-14118388D01*
X12148277Y-14118388D02*
X12138753Y-14137436D01*
X12138753Y-14137436D02*
X12129229Y-14146960D01*
X12129229Y-14146960D02*
X12110182Y-14156484D01*
X12110182Y-14156484D02*
X12091134Y-14156484D01*
X12091134Y-14156484D02*
X12072086Y-14146960D01*
X12072086Y-14146960D02*
X12062563Y-14137436D01*
X12062563Y-14137436D02*
X12053039Y-14118388D01*
X12053039Y-14118388D02*
X12043515Y-14080293D01*
X12043515Y-14080293D02*
X12043515Y-14032674D01*
X12043515Y-14032674D02*
X12053039Y-13994579D01*
X12053039Y-13994579D02*
X12062563Y-13975531D01*
X12062563Y-13975531D02*
X12072086Y-13966008D01*
X12072086Y-13966008D02*
X12091134Y-13956484D01*
X12243515Y-14137436D02*
X12253039Y-14146960D01*
X12253039Y-14146960D02*
X12243515Y-14156484D01*
X12243515Y-14156484D02*
X12233991Y-14146960D01*
X12233991Y-14146960D02*
X12243515Y-14137436D01*
X12243515Y-14137436D02*
X12243515Y-14156484D01*
X12376848Y-13956484D02*
X12395896Y-13956484D01*
X12395896Y-13956484D02*
X12414944Y-13966008D01*
X12414944Y-13966008D02*
X12424467Y-13975531D01*
X12424467Y-13975531D02*
X12433991Y-13994579D01*
X12433991Y-13994579D02*
X12443515Y-14032674D01*
X12443515Y-14032674D02*
X12443515Y-14080293D01*
X12443515Y-14080293D02*
X12433991Y-14118388D01*
X12433991Y-14118388D02*
X12424467Y-14137436D01*
X12424467Y-14137436D02*
X12414944Y-14146960D01*
X12414944Y-14146960D02*
X12395896Y-14156484D01*
X12395896Y-14156484D02*
X12376848Y-14156484D01*
X12376848Y-14156484D02*
X12357801Y-14146960D01*
X12357801Y-14146960D02*
X12348277Y-14137436D01*
X12348277Y-14137436D02*
X12338753Y-14118388D01*
X12338753Y-14118388D02*
X12329229Y-14080293D01*
X12329229Y-14080293D02*
X12329229Y-14032674D01*
X12329229Y-14032674D02*
X12338753Y-13994579D01*
X12338753Y-13994579D02*
X12348277Y-13975531D01*
X12348277Y-13975531D02*
X12357801Y-13966008D01*
X12357801Y-13966008D02*
X12376848Y-13956484D01*
X12519706Y-13975531D02*
X12529229Y-13966008D01*
X12529229Y-13966008D02*
X12548277Y-13956484D01*
X12548277Y-13956484D02*
X12595896Y-13956484D01*
X12595896Y-13956484D02*
X12614944Y-13966008D01*
X12614944Y-13966008D02*
X12624467Y-13975531D01*
X12624467Y-13975531D02*
X12633991Y-13994579D01*
X12633991Y-13994579D02*
X12633991Y-14013627D01*
X12633991Y-14013627D02*
X12624467Y-14042198D01*
X12624467Y-14042198D02*
X12510182Y-14156484D01*
X12510182Y-14156484D02*
X12633991Y-14156484D01*
X12700658Y-13956484D02*
X12833991Y-13956484D01*
X12833991Y-13956484D02*
X12748277Y-14156484D01*
X12995896Y-13956484D02*
X12957801Y-13956484D01*
X12957801Y-13956484D02*
X12938753Y-13966008D01*
X12938753Y-13966008D02*
X12929229Y-13975531D01*
X12929229Y-13975531D02*
X12910182Y-14004103D01*
X12910182Y-14004103D02*
X12900658Y-14042198D01*
X12900658Y-14042198D02*
X12900658Y-14118388D01*
X12900658Y-14118388D02*
X12910182Y-14137436D01*
X12910182Y-14137436D02*
X12919706Y-14146960D01*
X12919706Y-14146960D02*
X12938753Y-14156484D01*
X12938753Y-14156484D02*
X12976848Y-14156484D01*
X12976848Y-14156484D02*
X12995896Y-14146960D01*
X12995896Y-14146960D02*
X13005420Y-14137436D01*
X13005420Y-14137436D02*
X13014944Y-14118388D01*
X13014944Y-14118388D02*
X13014944Y-14070769D01*
X13014944Y-14070769D02*
X13005420Y-14051722D01*
X13005420Y-14051722D02*
X12995896Y-14042198D01*
X12995896Y-14042198D02*
X12976848Y-14032674D01*
X12976848Y-14032674D02*
X12938753Y-14032674D01*
X12938753Y-14032674D02*
X12919706Y-14042198D01*
X12919706Y-14042198D02*
X12910182Y-14051722D01*
X12910182Y-14051722D02*
X12900658Y-14070769D01*
X13091134Y-13956484D02*
X13091134Y-13994579D01*
X13167325Y-13956484D02*
X13167325Y-13994579D01*
X13462563Y-14232674D02*
X13453039Y-14223150D01*
X13453039Y-14223150D02*
X13433991Y-14194579D01*
X13433991Y-14194579D02*
X13424468Y-14175531D01*
X13424468Y-14175531D02*
X13414944Y-14146960D01*
X13414944Y-14146960D02*
X13405420Y-14099341D01*
X13405420Y-14099341D02*
X13405420Y-14061246D01*
X13405420Y-14061246D02*
X13414944Y-14013627D01*
X13414944Y-14013627D02*
X13424468Y-13985055D01*
X13424468Y-13985055D02*
X13433991Y-13966008D01*
X13433991Y-13966008D02*
X13453039Y-13937436D01*
X13453039Y-13937436D02*
X13462563Y-13927912D01*
X13624468Y-14023150D02*
X13624468Y-14156484D01*
X13576848Y-13946960D02*
X13529229Y-14089817D01*
X13529229Y-14089817D02*
X13653039Y-14089817D01*
X13881610Y-14156484D02*
X13881610Y-13956484D01*
X13967325Y-14156484D02*
X13967325Y-14051722D01*
X13967325Y-14051722D02*
X13957801Y-14032674D01*
X13957801Y-14032674D02*
X13938753Y-14023150D01*
X13938753Y-14023150D02*
X13910182Y-14023150D01*
X13910182Y-14023150D02*
X13891134Y-14032674D01*
X13891134Y-14032674D02*
X13881610Y-14042198D01*
X14091134Y-14156484D02*
X14072087Y-14146960D01*
X14072087Y-14146960D02*
X14062563Y-14137436D01*
X14062563Y-14137436D02*
X14053039Y-14118388D01*
X14053039Y-14118388D02*
X14053039Y-14061246D01*
X14053039Y-14061246D02*
X14062563Y-14042198D01*
X14062563Y-14042198D02*
X14072087Y-14032674D01*
X14072087Y-14032674D02*
X14091134Y-14023150D01*
X14091134Y-14023150D02*
X14119706Y-14023150D01*
X14119706Y-14023150D02*
X14138753Y-14032674D01*
X14138753Y-14032674D02*
X14148277Y-14042198D01*
X14148277Y-14042198D02*
X14157801Y-14061246D01*
X14157801Y-14061246D02*
X14157801Y-14118388D01*
X14157801Y-14118388D02*
X14148277Y-14137436D01*
X14148277Y-14137436D02*
X14138753Y-14146960D01*
X14138753Y-14146960D02*
X14119706Y-14156484D01*
X14119706Y-14156484D02*
X14091134Y-14156484D01*
X14272087Y-14156484D02*
X14253039Y-14146960D01*
X14253039Y-14146960D02*
X14243515Y-14127912D01*
X14243515Y-14127912D02*
X14243515Y-13956484D01*
X14424468Y-14146960D02*
X14405420Y-14156484D01*
X14405420Y-14156484D02*
X14367325Y-14156484D01*
X14367325Y-14156484D02*
X14348277Y-14146960D01*
X14348277Y-14146960D02*
X14338753Y-14127912D01*
X14338753Y-14127912D02*
X14338753Y-14051722D01*
X14338753Y-14051722D02*
X14348277Y-14032674D01*
X14348277Y-14032674D02*
X14367325Y-14023150D01*
X14367325Y-14023150D02*
X14405420Y-14023150D01*
X14405420Y-14023150D02*
X14424468Y-14032674D01*
X14424468Y-14032674D02*
X14433991Y-14051722D01*
X14433991Y-14051722D02*
X14433991Y-14070769D01*
X14433991Y-14070769D02*
X14338753Y-14089817D01*
X14510182Y-14146960D02*
X14529230Y-14156484D01*
X14529230Y-14156484D02*
X14567325Y-14156484D01*
X14567325Y-14156484D02*
X14586372Y-14146960D01*
X14586372Y-14146960D02*
X14595896Y-14127912D01*
X14595896Y-14127912D02*
X14595896Y-14118388D01*
X14595896Y-14118388D02*
X14586372Y-14099341D01*
X14586372Y-14099341D02*
X14567325Y-14089817D01*
X14567325Y-14089817D02*
X14538753Y-14089817D01*
X14538753Y-14089817D02*
X14519706Y-14080293D01*
X14519706Y-14080293D02*
X14510182Y-14061246D01*
X14510182Y-14061246D02*
X14510182Y-14051722D01*
X14510182Y-14051722D02*
X14519706Y-14032674D01*
X14519706Y-14032674D02*
X14538753Y-14023150D01*
X14538753Y-14023150D02*
X14567325Y-14023150D01*
X14567325Y-14023150D02*
X14586372Y-14032674D01*
X14662563Y-14232674D02*
X14672087Y-14223150D01*
X14672087Y-14223150D02*
X14691134Y-14194579D01*
X14691134Y-14194579D02*
X14700658Y-14175531D01*
X14700658Y-14175531D02*
X14710182Y-14146960D01*
X14710182Y-14146960D02*
X14719706Y-14099341D01*
X14719706Y-14099341D02*
X14719706Y-14061246D01*
X14719706Y-14061246D02*
X14710182Y-14013627D01*
X14710182Y-14013627D02*
X14700658Y-13985055D01*
X14700658Y-13985055D02*
X14691134Y-13966008D01*
X14691134Y-13966008D02*
X14672087Y-13937436D01*
X14672087Y-13937436D02*
X14662563Y-13927912D01*
D13*
X9887500Y-14329000D02*
G75*
G03*
X9887500Y-14329000I-40000J0D01*
G01*
D11*
X10186372Y-14220484D02*
X10205420Y-14220484D01*
X10205420Y-14220484D02*
X10224467Y-14230008D01*
X10224467Y-14230008D02*
X10233991Y-14239531D01*
X10233991Y-14239531D02*
X10243515Y-14258579D01*
X10243515Y-14258579D02*
X10253039Y-14296674D01*
X10253039Y-14296674D02*
X10253039Y-14344293D01*
X10253039Y-14344293D02*
X10243515Y-14382388D01*
X10243515Y-14382388D02*
X10233991Y-14401436D01*
X10233991Y-14401436D02*
X10224467Y-14410960D01*
X10224467Y-14410960D02*
X10205420Y-14420484D01*
X10205420Y-14420484D02*
X10186372Y-14420484D01*
X10186372Y-14420484D02*
X10167324Y-14410960D01*
X10167324Y-14410960D02*
X10157801Y-14401436D01*
X10157801Y-14401436D02*
X10148277Y-14382388D01*
X10148277Y-14382388D02*
X10138753Y-14344293D01*
X10138753Y-14344293D02*
X10138753Y-14296674D01*
X10138753Y-14296674D02*
X10148277Y-14258579D01*
X10148277Y-14258579D02*
X10157801Y-14239531D01*
X10157801Y-14239531D02*
X10167324Y-14230008D01*
X10167324Y-14230008D02*
X10186372Y-14220484D01*
X10338753Y-14401436D02*
X10348277Y-14410960D01*
X10348277Y-14410960D02*
X10338753Y-14420484D01*
X10338753Y-14420484D02*
X10329229Y-14410960D01*
X10329229Y-14410960D02*
X10338753Y-14401436D01*
X10338753Y-14401436D02*
X10338753Y-14420484D01*
X10462563Y-14306198D02*
X10443515Y-14296674D01*
X10443515Y-14296674D02*
X10433991Y-14287150D01*
X10433991Y-14287150D02*
X10424467Y-14268103D01*
X10424467Y-14268103D02*
X10424467Y-14258579D01*
X10424467Y-14258579D02*
X10433991Y-14239531D01*
X10433991Y-14239531D02*
X10443515Y-14230008D01*
X10443515Y-14230008D02*
X10462563Y-14220484D01*
X10462563Y-14220484D02*
X10500658Y-14220484D01*
X10500658Y-14220484D02*
X10519705Y-14230008D01*
X10519705Y-14230008D02*
X10529229Y-14239531D01*
X10529229Y-14239531D02*
X10538753Y-14258579D01*
X10538753Y-14258579D02*
X10538753Y-14268103D01*
X10538753Y-14268103D02*
X10529229Y-14287150D01*
X10529229Y-14287150D02*
X10519705Y-14296674D01*
X10519705Y-14296674D02*
X10500658Y-14306198D01*
X10500658Y-14306198D02*
X10462563Y-14306198D01*
X10462563Y-14306198D02*
X10443515Y-14315722D01*
X10443515Y-14315722D02*
X10433991Y-14325246D01*
X10433991Y-14325246D02*
X10424467Y-14344293D01*
X10424467Y-14344293D02*
X10424467Y-14382388D01*
X10424467Y-14382388D02*
X10433991Y-14401436D01*
X10433991Y-14401436D02*
X10443515Y-14410960D01*
X10443515Y-14410960D02*
X10462563Y-14420484D01*
X10462563Y-14420484D02*
X10500658Y-14420484D01*
X10500658Y-14420484D02*
X10519705Y-14410960D01*
X10519705Y-14410960D02*
X10529229Y-14401436D01*
X10529229Y-14401436D02*
X10538753Y-14382388D01*
X10538753Y-14382388D02*
X10538753Y-14344293D01*
X10538753Y-14344293D02*
X10529229Y-14325246D01*
X10529229Y-14325246D02*
X10519705Y-14315722D01*
X10519705Y-14315722D02*
X10500658Y-14306198D01*
X10662563Y-14220484D02*
X10681610Y-14220484D01*
X10681610Y-14220484D02*
X10700658Y-14230008D01*
X10700658Y-14230008D02*
X10710182Y-14239531D01*
X10710182Y-14239531D02*
X10719705Y-14258579D01*
X10719705Y-14258579D02*
X10729229Y-14296674D01*
X10729229Y-14296674D02*
X10729229Y-14344293D01*
X10729229Y-14344293D02*
X10719705Y-14382388D01*
X10719705Y-14382388D02*
X10710182Y-14401436D01*
X10710182Y-14401436D02*
X10700658Y-14410960D01*
X10700658Y-14410960D02*
X10681610Y-14420484D01*
X10681610Y-14420484D02*
X10662563Y-14420484D01*
X10662563Y-14420484D02*
X10643515Y-14410960D01*
X10643515Y-14410960D02*
X10633991Y-14401436D01*
X10633991Y-14401436D02*
X10624467Y-14382388D01*
X10624467Y-14382388D02*
X10614944Y-14344293D01*
X10614944Y-14344293D02*
X10614944Y-14296674D01*
X10614944Y-14296674D02*
X10624467Y-14258579D01*
X10624467Y-14258579D02*
X10633991Y-14239531D01*
X10633991Y-14239531D02*
X10643515Y-14230008D01*
X10643515Y-14230008D02*
X10662563Y-14220484D01*
X10853039Y-14220484D02*
X10872086Y-14220484D01*
X10872086Y-14220484D02*
X10891134Y-14230008D01*
X10891134Y-14230008D02*
X10900658Y-14239531D01*
X10900658Y-14239531D02*
X10910182Y-14258579D01*
X10910182Y-14258579D02*
X10919705Y-14296674D01*
X10919705Y-14296674D02*
X10919705Y-14344293D01*
X10919705Y-14344293D02*
X10910182Y-14382388D01*
X10910182Y-14382388D02*
X10900658Y-14401436D01*
X10900658Y-14401436D02*
X10891134Y-14410960D01*
X10891134Y-14410960D02*
X10872086Y-14420484D01*
X10872086Y-14420484D02*
X10853039Y-14420484D01*
X10853039Y-14420484D02*
X10833991Y-14410960D01*
X10833991Y-14410960D02*
X10824467Y-14401436D01*
X10824467Y-14401436D02*
X10814944Y-14382388D01*
X10814944Y-14382388D02*
X10805420Y-14344293D01*
X10805420Y-14344293D02*
X10805420Y-14296674D01*
X10805420Y-14296674D02*
X10814944Y-14258579D01*
X10814944Y-14258579D02*
X10824467Y-14239531D01*
X10824467Y-14239531D02*
X10833991Y-14230008D01*
X10833991Y-14230008D02*
X10853039Y-14220484D01*
X11005420Y-14420484D02*
X11005420Y-14287150D01*
X11005420Y-14306198D02*
X11014944Y-14296674D01*
X11014944Y-14296674D02*
X11033991Y-14287150D01*
X11033991Y-14287150D02*
X11062563Y-14287150D01*
X11062563Y-14287150D02*
X11081610Y-14296674D01*
X11081610Y-14296674D02*
X11091134Y-14315722D01*
X11091134Y-14315722D02*
X11091134Y-14420484D01*
X11091134Y-14315722D02*
X11100658Y-14296674D01*
X11100658Y-14296674D02*
X11119705Y-14287150D01*
X11119705Y-14287150D02*
X11148277Y-14287150D01*
X11148277Y-14287150D02*
X11167325Y-14296674D01*
X11167325Y-14296674D02*
X11176848Y-14315722D01*
X11176848Y-14315722D02*
X11176848Y-14420484D01*
X11272086Y-14420484D02*
X11272086Y-14287150D01*
X11272086Y-14306198D02*
X11281610Y-14296674D01*
X11281610Y-14296674D02*
X11300658Y-14287150D01*
X11300658Y-14287150D02*
X11329229Y-14287150D01*
X11329229Y-14287150D02*
X11348277Y-14296674D01*
X11348277Y-14296674D02*
X11357801Y-14315722D01*
X11357801Y-14315722D02*
X11357801Y-14420484D01*
X11357801Y-14315722D02*
X11367324Y-14296674D01*
X11367324Y-14296674D02*
X11386372Y-14287150D01*
X11386372Y-14287150D02*
X11414943Y-14287150D01*
X11414943Y-14287150D02*
X11433991Y-14296674D01*
X11433991Y-14296674D02*
X11443515Y-14315722D01*
X11443515Y-14315722D02*
X11443515Y-14420484D01*
X11833991Y-14210960D02*
X11662563Y-14468103D01*
X12091134Y-14220484D02*
X12110182Y-14220484D01*
X12110182Y-14220484D02*
X12129229Y-14230008D01*
X12129229Y-14230008D02*
X12138753Y-14239531D01*
X12138753Y-14239531D02*
X12148277Y-14258579D01*
X12148277Y-14258579D02*
X12157801Y-14296674D01*
X12157801Y-14296674D02*
X12157801Y-14344293D01*
X12157801Y-14344293D02*
X12148277Y-14382388D01*
X12148277Y-14382388D02*
X12138753Y-14401436D01*
X12138753Y-14401436D02*
X12129229Y-14410960D01*
X12129229Y-14410960D02*
X12110182Y-14420484D01*
X12110182Y-14420484D02*
X12091134Y-14420484D01*
X12091134Y-14420484D02*
X12072086Y-14410960D01*
X12072086Y-14410960D02*
X12062563Y-14401436D01*
X12062563Y-14401436D02*
X12053039Y-14382388D01*
X12053039Y-14382388D02*
X12043515Y-14344293D01*
X12043515Y-14344293D02*
X12043515Y-14296674D01*
X12043515Y-14296674D02*
X12053039Y-14258579D01*
X12053039Y-14258579D02*
X12062563Y-14239531D01*
X12062563Y-14239531D02*
X12072086Y-14230008D01*
X12072086Y-14230008D02*
X12091134Y-14220484D01*
X12243515Y-14401436D02*
X12253039Y-14410960D01*
X12253039Y-14410960D02*
X12243515Y-14420484D01*
X12243515Y-14420484D02*
X12233991Y-14410960D01*
X12233991Y-14410960D02*
X12243515Y-14401436D01*
X12243515Y-14401436D02*
X12243515Y-14420484D01*
X12376848Y-14220484D02*
X12395896Y-14220484D01*
X12395896Y-14220484D02*
X12414944Y-14230008D01*
X12414944Y-14230008D02*
X12424467Y-14239531D01*
X12424467Y-14239531D02*
X12433991Y-14258579D01*
X12433991Y-14258579D02*
X12443515Y-14296674D01*
X12443515Y-14296674D02*
X12443515Y-14344293D01*
X12443515Y-14344293D02*
X12433991Y-14382388D01*
X12433991Y-14382388D02*
X12424467Y-14401436D01*
X12424467Y-14401436D02*
X12414944Y-14410960D01*
X12414944Y-14410960D02*
X12395896Y-14420484D01*
X12395896Y-14420484D02*
X12376848Y-14420484D01*
X12376848Y-14420484D02*
X12357801Y-14410960D01*
X12357801Y-14410960D02*
X12348277Y-14401436D01*
X12348277Y-14401436D02*
X12338753Y-14382388D01*
X12338753Y-14382388D02*
X12329229Y-14344293D01*
X12329229Y-14344293D02*
X12329229Y-14296674D01*
X12329229Y-14296674D02*
X12338753Y-14258579D01*
X12338753Y-14258579D02*
X12348277Y-14239531D01*
X12348277Y-14239531D02*
X12357801Y-14230008D01*
X12357801Y-14230008D02*
X12376848Y-14220484D01*
X12510182Y-14220484D02*
X12633991Y-14220484D01*
X12633991Y-14220484D02*
X12567325Y-14296674D01*
X12567325Y-14296674D02*
X12595896Y-14296674D01*
X12595896Y-14296674D02*
X12614944Y-14306198D01*
X12614944Y-14306198D02*
X12624467Y-14315722D01*
X12624467Y-14315722D02*
X12633991Y-14334769D01*
X12633991Y-14334769D02*
X12633991Y-14382388D01*
X12633991Y-14382388D02*
X12624467Y-14401436D01*
X12624467Y-14401436D02*
X12614944Y-14410960D01*
X12614944Y-14410960D02*
X12595896Y-14420484D01*
X12595896Y-14420484D02*
X12538753Y-14420484D01*
X12538753Y-14420484D02*
X12519706Y-14410960D01*
X12519706Y-14410960D02*
X12510182Y-14401436D01*
X12824467Y-14420484D02*
X12710182Y-14420484D01*
X12767325Y-14420484D02*
X12767325Y-14220484D01*
X12767325Y-14220484D02*
X12748277Y-14249055D01*
X12748277Y-14249055D02*
X12729229Y-14268103D01*
X12729229Y-14268103D02*
X12710182Y-14277627D01*
X13005420Y-14220484D02*
X12910182Y-14220484D01*
X12910182Y-14220484D02*
X12900658Y-14315722D01*
X12900658Y-14315722D02*
X12910182Y-14306198D01*
X12910182Y-14306198D02*
X12929229Y-14296674D01*
X12929229Y-14296674D02*
X12976848Y-14296674D01*
X12976848Y-14296674D02*
X12995896Y-14306198D01*
X12995896Y-14306198D02*
X13005420Y-14315722D01*
X13005420Y-14315722D02*
X13014944Y-14334769D01*
X13014944Y-14334769D02*
X13014944Y-14382388D01*
X13014944Y-14382388D02*
X13005420Y-14401436D01*
X13005420Y-14401436D02*
X12995896Y-14410960D01*
X12995896Y-14410960D02*
X12976848Y-14420484D01*
X12976848Y-14420484D02*
X12929229Y-14420484D01*
X12929229Y-14420484D02*
X12910182Y-14410960D01*
X12910182Y-14410960D02*
X12900658Y-14401436D01*
X13091134Y-14220484D02*
X13091134Y-14258579D01*
X13167325Y-14220484D02*
X13167325Y-14258579D01*
X13462563Y-14496674D02*
X13453039Y-14487150D01*
X13453039Y-14487150D02*
X13433991Y-14458579D01*
X13433991Y-14458579D02*
X13424468Y-14439531D01*
X13424468Y-14439531D02*
X13414944Y-14410960D01*
X13414944Y-14410960D02*
X13405420Y-14363341D01*
X13405420Y-14363341D02*
X13405420Y-14325246D01*
X13405420Y-14325246D02*
X13414944Y-14277627D01*
X13414944Y-14277627D02*
X13424468Y-14249055D01*
X13424468Y-14249055D02*
X13433991Y-14230008D01*
X13433991Y-14230008D02*
X13453039Y-14201436D01*
X13453039Y-14201436D02*
X13462563Y-14191912D01*
X13633991Y-14220484D02*
X13538753Y-14220484D01*
X13538753Y-14220484D02*
X13529229Y-14315722D01*
X13529229Y-14315722D02*
X13538753Y-14306198D01*
X13538753Y-14306198D02*
X13557801Y-14296674D01*
X13557801Y-14296674D02*
X13605420Y-14296674D01*
X13605420Y-14296674D02*
X13624468Y-14306198D01*
X13624468Y-14306198D02*
X13633991Y-14315722D01*
X13633991Y-14315722D02*
X13643515Y-14334769D01*
X13643515Y-14334769D02*
X13643515Y-14382388D01*
X13643515Y-14382388D02*
X13633991Y-14401436D01*
X13633991Y-14401436D02*
X13624468Y-14410960D01*
X13624468Y-14410960D02*
X13605420Y-14420484D01*
X13605420Y-14420484D02*
X13557801Y-14420484D01*
X13557801Y-14420484D02*
X13538753Y-14410960D01*
X13538753Y-14410960D02*
X13529229Y-14401436D01*
X13881610Y-14420484D02*
X13881610Y-14220484D01*
X13967325Y-14420484D02*
X13967325Y-14315722D01*
X13967325Y-14315722D02*
X13957801Y-14296674D01*
X13957801Y-14296674D02*
X13938753Y-14287150D01*
X13938753Y-14287150D02*
X13910182Y-14287150D01*
X13910182Y-14287150D02*
X13891134Y-14296674D01*
X13891134Y-14296674D02*
X13881610Y-14306198D01*
X14091134Y-14420484D02*
X14072087Y-14410960D01*
X14072087Y-14410960D02*
X14062563Y-14401436D01*
X14062563Y-14401436D02*
X14053039Y-14382388D01*
X14053039Y-14382388D02*
X14053039Y-14325246D01*
X14053039Y-14325246D02*
X14062563Y-14306198D01*
X14062563Y-14306198D02*
X14072087Y-14296674D01*
X14072087Y-14296674D02*
X14091134Y-14287150D01*
X14091134Y-14287150D02*
X14119706Y-14287150D01*
X14119706Y-14287150D02*
X14138753Y-14296674D01*
X14138753Y-14296674D02*
X14148277Y-14306198D01*
X14148277Y-14306198D02*
X14157801Y-14325246D01*
X14157801Y-14325246D02*
X14157801Y-14382388D01*
X14157801Y-14382388D02*
X14148277Y-14401436D01*
X14148277Y-14401436D02*
X14138753Y-14410960D01*
X14138753Y-14410960D02*
X14119706Y-14420484D01*
X14119706Y-14420484D02*
X14091134Y-14420484D01*
X14272087Y-14420484D02*
X14253039Y-14410960D01*
X14253039Y-14410960D02*
X14243515Y-14391912D01*
X14243515Y-14391912D02*
X14243515Y-14220484D01*
X14424468Y-14410960D02*
X14405420Y-14420484D01*
X14405420Y-14420484D02*
X14367325Y-14420484D01*
X14367325Y-14420484D02*
X14348277Y-14410960D01*
X14348277Y-14410960D02*
X14338753Y-14391912D01*
X14338753Y-14391912D02*
X14338753Y-14315722D01*
X14338753Y-14315722D02*
X14348277Y-14296674D01*
X14348277Y-14296674D02*
X14367325Y-14287150D01*
X14367325Y-14287150D02*
X14405420Y-14287150D01*
X14405420Y-14287150D02*
X14424468Y-14296674D01*
X14424468Y-14296674D02*
X14433991Y-14315722D01*
X14433991Y-14315722D02*
X14433991Y-14334769D01*
X14433991Y-14334769D02*
X14338753Y-14353817D01*
X14510182Y-14410960D02*
X14529230Y-14420484D01*
X14529230Y-14420484D02*
X14567325Y-14420484D01*
X14567325Y-14420484D02*
X14586372Y-14410960D01*
X14586372Y-14410960D02*
X14595896Y-14391912D01*
X14595896Y-14391912D02*
X14595896Y-14382388D01*
X14595896Y-14382388D02*
X14586372Y-14363341D01*
X14586372Y-14363341D02*
X14567325Y-14353817D01*
X14567325Y-14353817D02*
X14538753Y-14353817D01*
X14538753Y-14353817D02*
X14519706Y-14344293D01*
X14519706Y-14344293D02*
X14510182Y-14325246D01*
X14510182Y-14325246D02*
X14510182Y-14315722D01*
X14510182Y-14315722D02*
X14519706Y-14296674D01*
X14519706Y-14296674D02*
X14538753Y-14287150D01*
X14538753Y-14287150D02*
X14567325Y-14287150D01*
X14567325Y-14287150D02*
X14586372Y-14296674D01*
X14662563Y-14496674D02*
X14672087Y-14487150D01*
X14672087Y-14487150D02*
X14691134Y-14458579D01*
X14691134Y-14458579D02*
X14700658Y-14439531D01*
X14700658Y-14439531D02*
X14710182Y-14410960D01*
X14710182Y-14410960D02*
X14719706Y-14363341D01*
X14719706Y-14363341D02*
X14719706Y-14325246D01*
X14719706Y-14325246D02*
X14710182Y-14277627D01*
X14710182Y-14277627D02*
X14700658Y-14249055D01*
X14700658Y-14249055D02*
X14691134Y-14230008D01*
X14691134Y-14230008D02*
X14672087Y-14201436D01*
X14672087Y-14201436D02*
X14662563Y-14191912D01*
D14*
X9827500Y-14533000D02*
X9827500Y-14653000D01*
X9767500Y-14593000D02*
X9887500Y-14593000D01*
D11*
X10253039Y-14684484D02*
X10138753Y-14684484D01*
X10195896Y-14684484D02*
X10195896Y-14484484D01*
X10195896Y-14484484D02*
X10176848Y-14513055D01*
X10176848Y-14513055D02*
X10157801Y-14532103D01*
X10157801Y-14532103D02*
X10138753Y-14541627D01*
X10338753Y-14665436D02*
X10348277Y-14674960D01*
X10348277Y-14674960D02*
X10338753Y-14684484D01*
X10338753Y-14684484D02*
X10329229Y-14674960D01*
X10329229Y-14674960D02*
X10338753Y-14665436D01*
X10338753Y-14665436D02*
X10338753Y-14684484D01*
X10424467Y-14503531D02*
X10433991Y-14494008D01*
X10433991Y-14494008D02*
X10453039Y-14484484D01*
X10453039Y-14484484D02*
X10500658Y-14484484D01*
X10500658Y-14484484D02*
X10519705Y-14494008D01*
X10519705Y-14494008D02*
X10529229Y-14503531D01*
X10529229Y-14503531D02*
X10538753Y-14522579D01*
X10538753Y-14522579D02*
X10538753Y-14541627D01*
X10538753Y-14541627D02*
X10529229Y-14570198D01*
X10529229Y-14570198D02*
X10414944Y-14684484D01*
X10414944Y-14684484D02*
X10538753Y-14684484D01*
X10662563Y-14484484D02*
X10681610Y-14484484D01*
X10681610Y-14484484D02*
X10700658Y-14494008D01*
X10700658Y-14494008D02*
X10710182Y-14503531D01*
X10710182Y-14503531D02*
X10719705Y-14522579D01*
X10719705Y-14522579D02*
X10729229Y-14560674D01*
X10729229Y-14560674D02*
X10729229Y-14608293D01*
X10729229Y-14608293D02*
X10719705Y-14646388D01*
X10719705Y-14646388D02*
X10710182Y-14665436D01*
X10710182Y-14665436D02*
X10700658Y-14674960D01*
X10700658Y-14674960D02*
X10681610Y-14684484D01*
X10681610Y-14684484D02*
X10662563Y-14684484D01*
X10662563Y-14684484D02*
X10643515Y-14674960D01*
X10643515Y-14674960D02*
X10633991Y-14665436D01*
X10633991Y-14665436D02*
X10624467Y-14646388D01*
X10624467Y-14646388D02*
X10614944Y-14608293D01*
X10614944Y-14608293D02*
X10614944Y-14560674D01*
X10614944Y-14560674D02*
X10624467Y-14522579D01*
X10624467Y-14522579D02*
X10633991Y-14503531D01*
X10633991Y-14503531D02*
X10643515Y-14494008D01*
X10643515Y-14494008D02*
X10662563Y-14484484D01*
X10853039Y-14484484D02*
X10872086Y-14484484D01*
X10872086Y-14484484D02*
X10891134Y-14494008D01*
X10891134Y-14494008D02*
X10900658Y-14503531D01*
X10900658Y-14503531D02*
X10910182Y-14522579D01*
X10910182Y-14522579D02*
X10919705Y-14560674D01*
X10919705Y-14560674D02*
X10919705Y-14608293D01*
X10919705Y-14608293D02*
X10910182Y-14646388D01*
X10910182Y-14646388D02*
X10900658Y-14665436D01*
X10900658Y-14665436D02*
X10891134Y-14674960D01*
X10891134Y-14674960D02*
X10872086Y-14684484D01*
X10872086Y-14684484D02*
X10853039Y-14684484D01*
X10853039Y-14684484D02*
X10833991Y-14674960D01*
X10833991Y-14674960D02*
X10824467Y-14665436D01*
X10824467Y-14665436D02*
X10814944Y-14646388D01*
X10814944Y-14646388D02*
X10805420Y-14608293D01*
X10805420Y-14608293D02*
X10805420Y-14560674D01*
X10805420Y-14560674D02*
X10814944Y-14522579D01*
X10814944Y-14522579D02*
X10824467Y-14503531D01*
X10824467Y-14503531D02*
X10833991Y-14494008D01*
X10833991Y-14494008D02*
X10853039Y-14484484D01*
X11005420Y-14684484D02*
X11005420Y-14551150D01*
X11005420Y-14570198D02*
X11014944Y-14560674D01*
X11014944Y-14560674D02*
X11033991Y-14551150D01*
X11033991Y-14551150D02*
X11062563Y-14551150D01*
X11062563Y-14551150D02*
X11081610Y-14560674D01*
X11081610Y-14560674D02*
X11091134Y-14579722D01*
X11091134Y-14579722D02*
X11091134Y-14684484D01*
X11091134Y-14579722D02*
X11100658Y-14560674D01*
X11100658Y-14560674D02*
X11119705Y-14551150D01*
X11119705Y-14551150D02*
X11148277Y-14551150D01*
X11148277Y-14551150D02*
X11167325Y-14560674D01*
X11167325Y-14560674D02*
X11176848Y-14579722D01*
X11176848Y-14579722D02*
X11176848Y-14684484D01*
X11272086Y-14684484D02*
X11272086Y-14551150D01*
X11272086Y-14570198D02*
X11281610Y-14560674D01*
X11281610Y-14560674D02*
X11300658Y-14551150D01*
X11300658Y-14551150D02*
X11329229Y-14551150D01*
X11329229Y-14551150D02*
X11348277Y-14560674D01*
X11348277Y-14560674D02*
X11357801Y-14579722D01*
X11357801Y-14579722D02*
X11357801Y-14684484D01*
X11357801Y-14579722D02*
X11367324Y-14560674D01*
X11367324Y-14560674D02*
X11386372Y-14551150D01*
X11386372Y-14551150D02*
X11414943Y-14551150D01*
X11414943Y-14551150D02*
X11433991Y-14560674D01*
X11433991Y-14560674D02*
X11443515Y-14579722D01*
X11443515Y-14579722D02*
X11443515Y-14684484D01*
X11833991Y-14474960D02*
X11662563Y-14732103D01*
X12091134Y-14484484D02*
X12110182Y-14484484D01*
X12110182Y-14484484D02*
X12129229Y-14494008D01*
X12129229Y-14494008D02*
X12138753Y-14503531D01*
X12138753Y-14503531D02*
X12148277Y-14522579D01*
X12148277Y-14522579D02*
X12157801Y-14560674D01*
X12157801Y-14560674D02*
X12157801Y-14608293D01*
X12157801Y-14608293D02*
X12148277Y-14646388D01*
X12148277Y-14646388D02*
X12138753Y-14665436D01*
X12138753Y-14665436D02*
X12129229Y-14674960D01*
X12129229Y-14674960D02*
X12110182Y-14684484D01*
X12110182Y-14684484D02*
X12091134Y-14684484D01*
X12091134Y-14684484D02*
X12072086Y-14674960D01*
X12072086Y-14674960D02*
X12062563Y-14665436D01*
X12062563Y-14665436D02*
X12053039Y-14646388D01*
X12053039Y-14646388D02*
X12043515Y-14608293D01*
X12043515Y-14608293D02*
X12043515Y-14560674D01*
X12043515Y-14560674D02*
X12053039Y-14522579D01*
X12053039Y-14522579D02*
X12062563Y-14503531D01*
X12062563Y-14503531D02*
X12072086Y-14494008D01*
X12072086Y-14494008D02*
X12091134Y-14484484D01*
X12243515Y-14665436D02*
X12253039Y-14674960D01*
X12253039Y-14674960D02*
X12243515Y-14684484D01*
X12243515Y-14684484D02*
X12233991Y-14674960D01*
X12233991Y-14674960D02*
X12243515Y-14665436D01*
X12243515Y-14665436D02*
X12243515Y-14684484D01*
X12376848Y-14484484D02*
X12395896Y-14484484D01*
X12395896Y-14484484D02*
X12414944Y-14494008D01*
X12414944Y-14494008D02*
X12424467Y-14503531D01*
X12424467Y-14503531D02*
X12433991Y-14522579D01*
X12433991Y-14522579D02*
X12443515Y-14560674D01*
X12443515Y-14560674D02*
X12443515Y-14608293D01*
X12443515Y-14608293D02*
X12433991Y-14646388D01*
X12433991Y-14646388D02*
X12424467Y-14665436D01*
X12424467Y-14665436D02*
X12414944Y-14674960D01*
X12414944Y-14674960D02*
X12395896Y-14684484D01*
X12395896Y-14684484D02*
X12376848Y-14684484D01*
X12376848Y-14684484D02*
X12357801Y-14674960D01*
X12357801Y-14674960D02*
X12348277Y-14665436D01*
X12348277Y-14665436D02*
X12338753Y-14646388D01*
X12338753Y-14646388D02*
X12329229Y-14608293D01*
X12329229Y-14608293D02*
X12329229Y-14560674D01*
X12329229Y-14560674D02*
X12338753Y-14522579D01*
X12338753Y-14522579D02*
X12348277Y-14503531D01*
X12348277Y-14503531D02*
X12357801Y-14494008D01*
X12357801Y-14494008D02*
X12376848Y-14484484D01*
X12614944Y-14551150D02*
X12614944Y-14684484D01*
X12567325Y-14474960D02*
X12519706Y-14617817D01*
X12519706Y-14617817D02*
X12643515Y-14617817D01*
X12700658Y-14484484D02*
X12833991Y-14484484D01*
X12833991Y-14484484D02*
X12748277Y-14684484D01*
X12900658Y-14503531D02*
X12910182Y-14494008D01*
X12910182Y-14494008D02*
X12929229Y-14484484D01*
X12929229Y-14484484D02*
X12976848Y-14484484D01*
X12976848Y-14484484D02*
X12995896Y-14494008D01*
X12995896Y-14494008D02*
X13005420Y-14503531D01*
X13005420Y-14503531D02*
X13014944Y-14522579D01*
X13014944Y-14522579D02*
X13014944Y-14541627D01*
X13014944Y-14541627D02*
X13005420Y-14570198D01*
X13005420Y-14570198D02*
X12891134Y-14684484D01*
X12891134Y-14684484D02*
X13014944Y-14684484D01*
X13091134Y-14484484D02*
X13091134Y-14522579D01*
X13167325Y-14484484D02*
X13167325Y-14522579D01*
X13462563Y-14760674D02*
X13453039Y-14751150D01*
X13453039Y-14751150D02*
X13433991Y-14722579D01*
X13433991Y-14722579D02*
X13424468Y-14703531D01*
X13424468Y-14703531D02*
X13414944Y-14674960D01*
X13414944Y-14674960D02*
X13405420Y-14627341D01*
X13405420Y-14627341D02*
X13405420Y-14589246D01*
X13405420Y-14589246D02*
X13414944Y-14541627D01*
X13414944Y-14541627D02*
X13424468Y-14513055D01*
X13424468Y-14513055D02*
X13433991Y-14494008D01*
X13433991Y-14494008D02*
X13453039Y-14465436D01*
X13453039Y-14465436D02*
X13462563Y-14455912D01*
X13643515Y-14684484D02*
X13529229Y-14684484D01*
X13586372Y-14684484D02*
X13586372Y-14484484D01*
X13586372Y-14484484D02*
X13567325Y-14513055D01*
X13567325Y-14513055D02*
X13548277Y-14532103D01*
X13548277Y-14532103D02*
X13529229Y-14541627D01*
X13881610Y-14684484D02*
X13881610Y-14484484D01*
X13967325Y-14684484D02*
X13967325Y-14579722D01*
X13967325Y-14579722D02*
X13957801Y-14560674D01*
X13957801Y-14560674D02*
X13938753Y-14551150D01*
X13938753Y-14551150D02*
X13910182Y-14551150D01*
X13910182Y-14551150D02*
X13891134Y-14560674D01*
X13891134Y-14560674D02*
X13881610Y-14570198D01*
X14091134Y-14684484D02*
X14072087Y-14674960D01*
X14072087Y-14674960D02*
X14062563Y-14665436D01*
X14062563Y-14665436D02*
X14053039Y-14646388D01*
X14053039Y-14646388D02*
X14053039Y-14589246D01*
X14053039Y-14589246D02*
X14062563Y-14570198D01*
X14062563Y-14570198D02*
X14072087Y-14560674D01*
X14072087Y-14560674D02*
X14091134Y-14551150D01*
X14091134Y-14551150D02*
X14119706Y-14551150D01*
X14119706Y-14551150D02*
X14138753Y-14560674D01*
X14138753Y-14560674D02*
X14148277Y-14570198D01*
X14148277Y-14570198D02*
X14157801Y-14589246D01*
X14157801Y-14589246D02*
X14157801Y-14646388D01*
X14157801Y-14646388D02*
X14148277Y-14665436D01*
X14148277Y-14665436D02*
X14138753Y-14674960D01*
X14138753Y-14674960D02*
X14119706Y-14684484D01*
X14119706Y-14684484D02*
X14091134Y-14684484D01*
X14272087Y-14684484D02*
X14253039Y-14674960D01*
X14253039Y-14674960D02*
X14243515Y-14655912D01*
X14243515Y-14655912D02*
X14243515Y-14484484D01*
X14424468Y-14674960D02*
X14405420Y-14684484D01*
X14405420Y-14684484D02*
X14367325Y-14684484D01*
X14367325Y-14684484D02*
X14348277Y-14674960D01*
X14348277Y-14674960D02*
X14338753Y-14655912D01*
X14338753Y-14655912D02*
X14338753Y-14579722D01*
X14338753Y-14579722D02*
X14348277Y-14560674D01*
X14348277Y-14560674D02*
X14367325Y-14551150D01*
X14367325Y-14551150D02*
X14405420Y-14551150D01*
X14405420Y-14551150D02*
X14424468Y-14560674D01*
X14424468Y-14560674D02*
X14433991Y-14579722D01*
X14433991Y-14579722D02*
X14433991Y-14598769D01*
X14433991Y-14598769D02*
X14338753Y-14617817D01*
X14500658Y-14760674D02*
X14510182Y-14751150D01*
X14510182Y-14751150D02*
X14529230Y-14722579D01*
X14529230Y-14722579D02*
X14538753Y-14703531D01*
X14538753Y-14703531D02*
X14548277Y-14674960D01*
X14548277Y-14674960D02*
X14557801Y-14627341D01*
X14557801Y-14627341D02*
X14557801Y-14589246D01*
X14557801Y-14589246D02*
X14548277Y-14541627D01*
X14548277Y-14541627D02*
X14538753Y-14513055D01*
X14538753Y-14513055D02*
X14529230Y-14494008D01*
X14529230Y-14494008D02*
X14510182Y-14465436D01*
X14510182Y-14465436D02*
X14500658Y-14455912D01*
X14862563Y-14760674D02*
X14853039Y-14751150D01*
X14853039Y-14751150D02*
X14833991Y-14722579D01*
X14833991Y-14722579D02*
X14824468Y-14703531D01*
X14824468Y-14703531D02*
X14814944Y-14674960D01*
X14814944Y-14674960D02*
X14805420Y-14627341D01*
X14805420Y-14627341D02*
X14805420Y-14589246D01*
X14805420Y-14589246D02*
X14814944Y-14541627D01*
X14814944Y-14541627D02*
X14824468Y-14513055D01*
X14824468Y-14513055D02*
X14833991Y-14494008D01*
X14833991Y-14494008D02*
X14853039Y-14465436D01*
X14853039Y-14465436D02*
X14862563Y-14455912D01*
X14938753Y-14551150D02*
X14938753Y-14684484D01*
X14938753Y-14570198D02*
X14948277Y-14560674D01*
X14948277Y-14560674D02*
X14967325Y-14551150D01*
X14967325Y-14551150D02*
X14995896Y-14551150D01*
X14995896Y-14551150D02*
X15014944Y-14560674D01*
X15014944Y-14560674D02*
X15024468Y-14579722D01*
X15024468Y-14579722D02*
X15024468Y-14684484D01*
X15148277Y-14684484D02*
X15129230Y-14674960D01*
X15129230Y-14674960D02*
X15119706Y-14665436D01*
X15119706Y-14665436D02*
X15110182Y-14646388D01*
X15110182Y-14646388D02*
X15110182Y-14589246D01*
X15110182Y-14589246D02*
X15119706Y-14570198D01*
X15119706Y-14570198D02*
X15129230Y-14560674D01*
X15129230Y-14560674D02*
X15148277Y-14551150D01*
X15148277Y-14551150D02*
X15176849Y-14551150D01*
X15176849Y-14551150D02*
X15195896Y-14560674D01*
X15195896Y-14560674D02*
X15205420Y-14570198D01*
X15205420Y-14570198D02*
X15214944Y-14589246D01*
X15214944Y-14589246D02*
X15214944Y-14646388D01*
X15214944Y-14646388D02*
X15205420Y-14665436D01*
X15205420Y-14665436D02*
X15195896Y-14674960D01*
X15195896Y-14674960D02*
X15176849Y-14684484D01*
X15176849Y-14684484D02*
X15148277Y-14684484D01*
X15272087Y-14551150D02*
X15348277Y-14551150D01*
X15300658Y-14484484D02*
X15300658Y-14655912D01*
X15300658Y-14655912D02*
X15310182Y-14674960D01*
X15310182Y-14674960D02*
X15329230Y-14684484D01*
X15329230Y-14684484D02*
X15348277Y-14684484D01*
X15567325Y-14551150D02*
X15567325Y-14751150D01*
X15567325Y-14560674D02*
X15586372Y-14551150D01*
X15586372Y-14551150D02*
X15624468Y-14551150D01*
X15624468Y-14551150D02*
X15643515Y-14560674D01*
X15643515Y-14560674D02*
X15653039Y-14570198D01*
X15653039Y-14570198D02*
X15662563Y-14589246D01*
X15662563Y-14589246D02*
X15662563Y-14646388D01*
X15662563Y-14646388D02*
X15653039Y-14665436D01*
X15653039Y-14665436D02*
X15643515Y-14674960D01*
X15643515Y-14674960D02*
X15624468Y-14684484D01*
X15624468Y-14684484D02*
X15586372Y-14684484D01*
X15586372Y-14684484D02*
X15567325Y-14674960D01*
X15776849Y-14684484D02*
X15757801Y-14674960D01*
X15757801Y-14674960D02*
X15748277Y-14655912D01*
X15748277Y-14655912D02*
X15748277Y-14484484D01*
X15938753Y-14684484D02*
X15938753Y-14579722D01*
X15938753Y-14579722D02*
X15929230Y-14560674D01*
X15929230Y-14560674D02*
X15910182Y-14551150D01*
X15910182Y-14551150D02*
X15872087Y-14551150D01*
X15872087Y-14551150D02*
X15853039Y-14560674D01*
X15938753Y-14674960D02*
X15919706Y-14684484D01*
X15919706Y-14684484D02*
X15872087Y-14684484D01*
X15872087Y-14684484D02*
X15853039Y-14674960D01*
X15853039Y-14674960D02*
X15843515Y-14655912D01*
X15843515Y-14655912D02*
X15843515Y-14636865D01*
X15843515Y-14636865D02*
X15853039Y-14617817D01*
X15853039Y-14617817D02*
X15872087Y-14608293D01*
X15872087Y-14608293D02*
X15919706Y-14608293D01*
X15919706Y-14608293D02*
X15938753Y-14598769D01*
X16005420Y-14551150D02*
X16081611Y-14551150D01*
X16033992Y-14484484D02*
X16033992Y-14655912D01*
X16033992Y-14655912D02*
X16043515Y-14674960D01*
X16043515Y-14674960D02*
X16062563Y-14684484D01*
X16062563Y-14684484D02*
X16081611Y-14684484D01*
X16224468Y-14674960D02*
X16205420Y-14684484D01*
X16205420Y-14684484D02*
X16167325Y-14684484D01*
X16167325Y-14684484D02*
X16148277Y-14674960D01*
X16148277Y-14674960D02*
X16138753Y-14655912D01*
X16138753Y-14655912D02*
X16138753Y-14579722D01*
X16138753Y-14579722D02*
X16148277Y-14560674D01*
X16148277Y-14560674D02*
X16167325Y-14551150D01*
X16167325Y-14551150D02*
X16205420Y-14551150D01*
X16205420Y-14551150D02*
X16224468Y-14560674D01*
X16224468Y-14560674D02*
X16233992Y-14579722D01*
X16233992Y-14579722D02*
X16233992Y-14598769D01*
X16233992Y-14598769D02*
X16138753Y-14617817D01*
X16405420Y-14684484D02*
X16405420Y-14484484D01*
X16405420Y-14674960D02*
X16386373Y-14684484D01*
X16386373Y-14684484D02*
X16348277Y-14684484D01*
X16348277Y-14684484D02*
X16329230Y-14674960D01*
X16329230Y-14674960D02*
X16319706Y-14665436D01*
X16319706Y-14665436D02*
X16310182Y-14646388D01*
X16310182Y-14646388D02*
X16310182Y-14589246D01*
X16310182Y-14589246D02*
X16319706Y-14570198D01*
X16319706Y-14570198D02*
X16329230Y-14560674D01*
X16329230Y-14560674D02*
X16348277Y-14551150D01*
X16348277Y-14551150D02*
X16386373Y-14551150D01*
X16386373Y-14551150D02*
X16405420Y-14560674D01*
X16481611Y-14760674D02*
X16491134Y-14751150D01*
X16491134Y-14751150D02*
X16510182Y-14722579D01*
X16510182Y-14722579D02*
X16519706Y-14703531D01*
X16519706Y-14703531D02*
X16529230Y-14674960D01*
X16529230Y-14674960D02*
X16538753Y-14627341D01*
X16538753Y-14627341D02*
X16538753Y-14589246D01*
X16538753Y-14589246D02*
X16529230Y-14541627D01*
X16529230Y-14541627D02*
X16519706Y-14513055D01*
X16519706Y-14513055D02*
X16510182Y-14494008D01*
X16510182Y-14494008D02*
X16491134Y-14465436D01*
X16491134Y-14465436D02*
X16481611Y-14455912D01*
D15*
X9864069Y-14913569D02*
X9864069Y-14800431D01*
X9750931Y-14800431D01*
X9750931Y-14913569D01*
X9864069Y-14913569D01*
D11*
X10253039Y-14948484D02*
X10138753Y-14948484D01*
X10195896Y-14948484D02*
X10195896Y-14748484D01*
X10195896Y-14748484D02*
X10176848Y-14777055D01*
X10176848Y-14777055D02*
X10157801Y-14796103D01*
X10157801Y-14796103D02*
X10138753Y-14805627D01*
X10338753Y-14929436D02*
X10348277Y-14938960D01*
X10348277Y-14938960D02*
X10338753Y-14948484D01*
X10338753Y-14948484D02*
X10329229Y-14938960D01*
X10329229Y-14938960D02*
X10338753Y-14929436D01*
X10338753Y-14929436D02*
X10338753Y-14948484D01*
X10519705Y-14748484D02*
X10481610Y-14748484D01*
X10481610Y-14748484D02*
X10462563Y-14758008D01*
X10462563Y-14758008D02*
X10453039Y-14767531D01*
X10453039Y-14767531D02*
X10433991Y-14796103D01*
X10433991Y-14796103D02*
X10424467Y-14834198D01*
X10424467Y-14834198D02*
X10424467Y-14910388D01*
X10424467Y-14910388D02*
X10433991Y-14929436D01*
X10433991Y-14929436D02*
X10443515Y-14938960D01*
X10443515Y-14938960D02*
X10462563Y-14948484D01*
X10462563Y-14948484D02*
X10500658Y-14948484D01*
X10500658Y-14948484D02*
X10519705Y-14938960D01*
X10519705Y-14938960D02*
X10529229Y-14929436D01*
X10529229Y-14929436D02*
X10538753Y-14910388D01*
X10538753Y-14910388D02*
X10538753Y-14862769D01*
X10538753Y-14862769D02*
X10529229Y-14843722D01*
X10529229Y-14843722D02*
X10519705Y-14834198D01*
X10519705Y-14834198D02*
X10500658Y-14824674D01*
X10500658Y-14824674D02*
X10462563Y-14824674D01*
X10462563Y-14824674D02*
X10443515Y-14834198D01*
X10443515Y-14834198D02*
X10433991Y-14843722D01*
X10433991Y-14843722D02*
X10424467Y-14862769D01*
X10662563Y-14748484D02*
X10681610Y-14748484D01*
X10681610Y-14748484D02*
X10700658Y-14758008D01*
X10700658Y-14758008D02*
X10710182Y-14767531D01*
X10710182Y-14767531D02*
X10719705Y-14786579D01*
X10719705Y-14786579D02*
X10729229Y-14824674D01*
X10729229Y-14824674D02*
X10729229Y-14872293D01*
X10729229Y-14872293D02*
X10719705Y-14910388D01*
X10719705Y-14910388D02*
X10710182Y-14929436D01*
X10710182Y-14929436D02*
X10700658Y-14938960D01*
X10700658Y-14938960D02*
X10681610Y-14948484D01*
X10681610Y-14948484D02*
X10662563Y-14948484D01*
X10662563Y-14948484D02*
X10643515Y-14938960D01*
X10643515Y-14938960D02*
X10633991Y-14929436D01*
X10633991Y-14929436D02*
X10624467Y-14910388D01*
X10624467Y-14910388D02*
X10614944Y-14872293D01*
X10614944Y-14872293D02*
X10614944Y-14824674D01*
X10614944Y-14824674D02*
X10624467Y-14786579D01*
X10624467Y-14786579D02*
X10633991Y-14767531D01*
X10633991Y-14767531D02*
X10643515Y-14758008D01*
X10643515Y-14758008D02*
X10662563Y-14748484D01*
X10853039Y-14748484D02*
X10872086Y-14748484D01*
X10872086Y-14748484D02*
X10891134Y-14758008D01*
X10891134Y-14758008D02*
X10900658Y-14767531D01*
X10900658Y-14767531D02*
X10910182Y-14786579D01*
X10910182Y-14786579D02*
X10919705Y-14824674D01*
X10919705Y-14824674D02*
X10919705Y-14872293D01*
X10919705Y-14872293D02*
X10910182Y-14910388D01*
X10910182Y-14910388D02*
X10900658Y-14929436D01*
X10900658Y-14929436D02*
X10891134Y-14938960D01*
X10891134Y-14938960D02*
X10872086Y-14948484D01*
X10872086Y-14948484D02*
X10853039Y-14948484D01*
X10853039Y-14948484D02*
X10833991Y-14938960D01*
X10833991Y-14938960D02*
X10824467Y-14929436D01*
X10824467Y-14929436D02*
X10814944Y-14910388D01*
X10814944Y-14910388D02*
X10805420Y-14872293D01*
X10805420Y-14872293D02*
X10805420Y-14824674D01*
X10805420Y-14824674D02*
X10814944Y-14786579D01*
X10814944Y-14786579D02*
X10824467Y-14767531D01*
X10824467Y-14767531D02*
X10833991Y-14758008D01*
X10833991Y-14758008D02*
X10853039Y-14748484D01*
X11005420Y-14948484D02*
X11005420Y-14815150D01*
X11005420Y-14834198D02*
X11014944Y-14824674D01*
X11014944Y-14824674D02*
X11033991Y-14815150D01*
X11033991Y-14815150D02*
X11062563Y-14815150D01*
X11062563Y-14815150D02*
X11081610Y-14824674D01*
X11081610Y-14824674D02*
X11091134Y-14843722D01*
X11091134Y-14843722D02*
X11091134Y-14948484D01*
X11091134Y-14843722D02*
X11100658Y-14824674D01*
X11100658Y-14824674D02*
X11119705Y-14815150D01*
X11119705Y-14815150D02*
X11148277Y-14815150D01*
X11148277Y-14815150D02*
X11167325Y-14824674D01*
X11167325Y-14824674D02*
X11176848Y-14843722D01*
X11176848Y-14843722D02*
X11176848Y-14948484D01*
X11272086Y-14948484D02*
X11272086Y-14815150D01*
X11272086Y-14834198D02*
X11281610Y-14824674D01*
X11281610Y-14824674D02*
X11300658Y-14815150D01*
X11300658Y-14815150D02*
X11329229Y-14815150D01*
X11329229Y-14815150D02*
X11348277Y-14824674D01*
X11348277Y-14824674D02*
X11357801Y-14843722D01*
X11357801Y-14843722D02*
X11357801Y-14948484D01*
X11357801Y-14843722D02*
X11367324Y-14824674D01*
X11367324Y-14824674D02*
X11386372Y-14815150D01*
X11386372Y-14815150D02*
X11414943Y-14815150D01*
X11414943Y-14815150D02*
X11433991Y-14824674D01*
X11433991Y-14824674D02*
X11443515Y-14843722D01*
X11443515Y-14843722D02*
X11443515Y-14948484D01*
X11833991Y-14738960D02*
X11662563Y-14996103D01*
X12091134Y-14748484D02*
X12110182Y-14748484D01*
X12110182Y-14748484D02*
X12129229Y-14758008D01*
X12129229Y-14758008D02*
X12138753Y-14767531D01*
X12138753Y-14767531D02*
X12148277Y-14786579D01*
X12148277Y-14786579D02*
X12157801Y-14824674D01*
X12157801Y-14824674D02*
X12157801Y-14872293D01*
X12157801Y-14872293D02*
X12148277Y-14910388D01*
X12148277Y-14910388D02*
X12138753Y-14929436D01*
X12138753Y-14929436D02*
X12129229Y-14938960D01*
X12129229Y-14938960D02*
X12110182Y-14948484D01*
X12110182Y-14948484D02*
X12091134Y-14948484D01*
X12091134Y-14948484D02*
X12072086Y-14938960D01*
X12072086Y-14938960D02*
X12062563Y-14929436D01*
X12062563Y-14929436D02*
X12053039Y-14910388D01*
X12053039Y-14910388D02*
X12043515Y-14872293D01*
X12043515Y-14872293D02*
X12043515Y-14824674D01*
X12043515Y-14824674D02*
X12053039Y-14786579D01*
X12053039Y-14786579D02*
X12062563Y-14767531D01*
X12062563Y-14767531D02*
X12072086Y-14758008D01*
X12072086Y-14758008D02*
X12091134Y-14748484D01*
X12243515Y-14929436D02*
X12253039Y-14938960D01*
X12253039Y-14938960D02*
X12243515Y-14948484D01*
X12243515Y-14948484D02*
X12233991Y-14938960D01*
X12233991Y-14938960D02*
X12243515Y-14929436D01*
X12243515Y-14929436D02*
X12243515Y-14948484D01*
X12376848Y-14748484D02*
X12395896Y-14748484D01*
X12395896Y-14748484D02*
X12414944Y-14758008D01*
X12414944Y-14758008D02*
X12424467Y-14767531D01*
X12424467Y-14767531D02*
X12433991Y-14786579D01*
X12433991Y-14786579D02*
X12443515Y-14824674D01*
X12443515Y-14824674D02*
X12443515Y-14872293D01*
X12443515Y-14872293D02*
X12433991Y-14910388D01*
X12433991Y-14910388D02*
X12424467Y-14929436D01*
X12424467Y-14929436D02*
X12414944Y-14938960D01*
X12414944Y-14938960D02*
X12395896Y-14948484D01*
X12395896Y-14948484D02*
X12376848Y-14948484D01*
X12376848Y-14948484D02*
X12357801Y-14938960D01*
X12357801Y-14938960D02*
X12348277Y-14929436D01*
X12348277Y-14929436D02*
X12338753Y-14910388D01*
X12338753Y-14910388D02*
X12329229Y-14872293D01*
X12329229Y-14872293D02*
X12329229Y-14824674D01*
X12329229Y-14824674D02*
X12338753Y-14786579D01*
X12338753Y-14786579D02*
X12348277Y-14767531D01*
X12348277Y-14767531D02*
X12357801Y-14758008D01*
X12357801Y-14758008D02*
X12376848Y-14748484D01*
X12614944Y-14748484D02*
X12576848Y-14748484D01*
X12576848Y-14748484D02*
X12557801Y-14758008D01*
X12557801Y-14758008D02*
X12548277Y-14767531D01*
X12548277Y-14767531D02*
X12529229Y-14796103D01*
X12529229Y-14796103D02*
X12519706Y-14834198D01*
X12519706Y-14834198D02*
X12519706Y-14910388D01*
X12519706Y-14910388D02*
X12529229Y-14929436D01*
X12529229Y-14929436D02*
X12538753Y-14938960D01*
X12538753Y-14938960D02*
X12557801Y-14948484D01*
X12557801Y-14948484D02*
X12595896Y-14948484D01*
X12595896Y-14948484D02*
X12614944Y-14938960D01*
X12614944Y-14938960D02*
X12624467Y-14929436D01*
X12624467Y-14929436D02*
X12633991Y-14910388D01*
X12633991Y-14910388D02*
X12633991Y-14862769D01*
X12633991Y-14862769D02*
X12624467Y-14843722D01*
X12624467Y-14843722D02*
X12614944Y-14834198D01*
X12614944Y-14834198D02*
X12595896Y-14824674D01*
X12595896Y-14824674D02*
X12557801Y-14824674D01*
X12557801Y-14824674D02*
X12538753Y-14834198D01*
X12538753Y-14834198D02*
X12529229Y-14843722D01*
X12529229Y-14843722D02*
X12519706Y-14862769D01*
X12700658Y-14748484D02*
X12824467Y-14748484D01*
X12824467Y-14748484D02*
X12757801Y-14824674D01*
X12757801Y-14824674D02*
X12786372Y-14824674D01*
X12786372Y-14824674D02*
X12805420Y-14834198D01*
X12805420Y-14834198D02*
X12814944Y-14843722D01*
X12814944Y-14843722D02*
X12824467Y-14862769D01*
X12824467Y-14862769D02*
X12824467Y-14910388D01*
X12824467Y-14910388D02*
X12814944Y-14929436D01*
X12814944Y-14929436D02*
X12805420Y-14938960D01*
X12805420Y-14938960D02*
X12786372Y-14948484D01*
X12786372Y-14948484D02*
X12729229Y-14948484D01*
X12729229Y-14948484D02*
X12710182Y-14938960D01*
X12710182Y-14938960D02*
X12700658Y-14929436D01*
X12948277Y-14748484D02*
X12967325Y-14748484D01*
X12967325Y-14748484D02*
X12986372Y-14758008D01*
X12986372Y-14758008D02*
X12995896Y-14767531D01*
X12995896Y-14767531D02*
X13005420Y-14786579D01*
X13005420Y-14786579D02*
X13014944Y-14824674D01*
X13014944Y-14824674D02*
X13014944Y-14872293D01*
X13014944Y-14872293D02*
X13005420Y-14910388D01*
X13005420Y-14910388D02*
X12995896Y-14929436D01*
X12995896Y-14929436D02*
X12986372Y-14938960D01*
X12986372Y-14938960D02*
X12967325Y-14948484D01*
X12967325Y-14948484D02*
X12948277Y-14948484D01*
X12948277Y-14948484D02*
X12929229Y-14938960D01*
X12929229Y-14938960D02*
X12919706Y-14929436D01*
X12919706Y-14929436D02*
X12910182Y-14910388D01*
X12910182Y-14910388D02*
X12900658Y-14872293D01*
X12900658Y-14872293D02*
X12900658Y-14824674D01*
X12900658Y-14824674D02*
X12910182Y-14786579D01*
X12910182Y-14786579D02*
X12919706Y-14767531D01*
X12919706Y-14767531D02*
X12929229Y-14758008D01*
X12929229Y-14758008D02*
X12948277Y-14748484D01*
X13091134Y-14748484D02*
X13091134Y-14786579D01*
X13167325Y-14748484D02*
X13167325Y-14786579D01*
X13462563Y-15024674D02*
X13453039Y-15015150D01*
X13453039Y-15015150D02*
X13433991Y-14986579D01*
X13433991Y-14986579D02*
X13424468Y-14967531D01*
X13424468Y-14967531D02*
X13414944Y-14938960D01*
X13414944Y-14938960D02*
X13405420Y-14891341D01*
X13405420Y-14891341D02*
X13405420Y-14853246D01*
X13405420Y-14853246D02*
X13414944Y-14805627D01*
X13414944Y-14805627D02*
X13424468Y-14777055D01*
X13424468Y-14777055D02*
X13433991Y-14758008D01*
X13433991Y-14758008D02*
X13453039Y-14729436D01*
X13453039Y-14729436D02*
X13462563Y-14719912D01*
X13643515Y-14948484D02*
X13529229Y-14948484D01*
X13586372Y-14948484D02*
X13586372Y-14748484D01*
X13586372Y-14748484D02*
X13567325Y-14777055D01*
X13567325Y-14777055D02*
X13548277Y-14796103D01*
X13548277Y-14796103D02*
X13529229Y-14805627D01*
X13881610Y-14948484D02*
X13881610Y-14748484D01*
X13967325Y-14948484D02*
X13967325Y-14843722D01*
X13967325Y-14843722D02*
X13957801Y-14824674D01*
X13957801Y-14824674D02*
X13938753Y-14815150D01*
X13938753Y-14815150D02*
X13910182Y-14815150D01*
X13910182Y-14815150D02*
X13891134Y-14824674D01*
X13891134Y-14824674D02*
X13881610Y-14834198D01*
X14091134Y-14948484D02*
X14072087Y-14938960D01*
X14072087Y-14938960D02*
X14062563Y-14929436D01*
X14062563Y-14929436D02*
X14053039Y-14910388D01*
X14053039Y-14910388D02*
X14053039Y-14853246D01*
X14053039Y-14853246D02*
X14062563Y-14834198D01*
X14062563Y-14834198D02*
X14072087Y-14824674D01*
X14072087Y-14824674D02*
X14091134Y-14815150D01*
X14091134Y-14815150D02*
X14119706Y-14815150D01*
X14119706Y-14815150D02*
X14138753Y-14824674D01*
X14138753Y-14824674D02*
X14148277Y-14834198D01*
X14148277Y-14834198D02*
X14157801Y-14853246D01*
X14157801Y-14853246D02*
X14157801Y-14910388D01*
X14157801Y-14910388D02*
X14148277Y-14929436D01*
X14148277Y-14929436D02*
X14138753Y-14938960D01*
X14138753Y-14938960D02*
X14119706Y-14948484D01*
X14119706Y-14948484D02*
X14091134Y-14948484D01*
X14272087Y-14948484D02*
X14253039Y-14938960D01*
X14253039Y-14938960D02*
X14243515Y-14919912D01*
X14243515Y-14919912D02*
X14243515Y-14748484D01*
X14424468Y-14938960D02*
X14405420Y-14948484D01*
X14405420Y-14948484D02*
X14367325Y-14948484D01*
X14367325Y-14948484D02*
X14348277Y-14938960D01*
X14348277Y-14938960D02*
X14338753Y-14919912D01*
X14338753Y-14919912D02*
X14338753Y-14843722D01*
X14338753Y-14843722D02*
X14348277Y-14824674D01*
X14348277Y-14824674D02*
X14367325Y-14815150D01*
X14367325Y-14815150D02*
X14405420Y-14815150D01*
X14405420Y-14815150D02*
X14424468Y-14824674D01*
X14424468Y-14824674D02*
X14433991Y-14843722D01*
X14433991Y-14843722D02*
X14433991Y-14862769D01*
X14433991Y-14862769D02*
X14338753Y-14881817D01*
X14500658Y-15024674D02*
X14510182Y-15015150D01*
X14510182Y-15015150D02*
X14529230Y-14986579D01*
X14529230Y-14986579D02*
X14538753Y-14967531D01*
X14538753Y-14967531D02*
X14548277Y-14938960D01*
X14548277Y-14938960D02*
X14557801Y-14891341D01*
X14557801Y-14891341D02*
X14557801Y-14853246D01*
X14557801Y-14853246D02*
X14548277Y-14805627D01*
X14548277Y-14805627D02*
X14538753Y-14777055D01*
X14538753Y-14777055D02*
X14529230Y-14758008D01*
X14529230Y-14758008D02*
X14510182Y-14729436D01*
X14510182Y-14729436D02*
X14500658Y-14719912D01*
X14862563Y-15024674D02*
X14853039Y-15015150D01*
X14853039Y-15015150D02*
X14833991Y-14986579D01*
X14833991Y-14986579D02*
X14824468Y-14967531D01*
X14824468Y-14967531D02*
X14814944Y-14938960D01*
X14814944Y-14938960D02*
X14805420Y-14891341D01*
X14805420Y-14891341D02*
X14805420Y-14853246D01*
X14805420Y-14853246D02*
X14814944Y-14805627D01*
X14814944Y-14805627D02*
X14824468Y-14777055D01*
X14824468Y-14777055D02*
X14833991Y-14758008D01*
X14833991Y-14758008D02*
X14853039Y-14729436D01*
X14853039Y-14729436D02*
X14862563Y-14719912D01*
X14938753Y-14815150D02*
X14938753Y-14948484D01*
X14938753Y-14834198D02*
X14948277Y-14824674D01*
X14948277Y-14824674D02*
X14967325Y-14815150D01*
X14967325Y-14815150D02*
X14995896Y-14815150D01*
X14995896Y-14815150D02*
X15014944Y-14824674D01*
X15014944Y-14824674D02*
X15024468Y-14843722D01*
X15024468Y-14843722D02*
X15024468Y-14948484D01*
X15148277Y-14948484D02*
X15129230Y-14938960D01*
X15129230Y-14938960D02*
X15119706Y-14929436D01*
X15119706Y-14929436D02*
X15110182Y-14910388D01*
X15110182Y-14910388D02*
X15110182Y-14853246D01*
X15110182Y-14853246D02*
X15119706Y-14834198D01*
X15119706Y-14834198D02*
X15129230Y-14824674D01*
X15129230Y-14824674D02*
X15148277Y-14815150D01*
X15148277Y-14815150D02*
X15176849Y-14815150D01*
X15176849Y-14815150D02*
X15195896Y-14824674D01*
X15195896Y-14824674D02*
X15205420Y-14834198D01*
X15205420Y-14834198D02*
X15214944Y-14853246D01*
X15214944Y-14853246D02*
X15214944Y-14910388D01*
X15214944Y-14910388D02*
X15205420Y-14929436D01*
X15205420Y-14929436D02*
X15195896Y-14938960D01*
X15195896Y-14938960D02*
X15176849Y-14948484D01*
X15176849Y-14948484D02*
X15148277Y-14948484D01*
X15272087Y-14815150D02*
X15348277Y-14815150D01*
X15300658Y-14748484D02*
X15300658Y-14919912D01*
X15300658Y-14919912D02*
X15310182Y-14938960D01*
X15310182Y-14938960D02*
X15329230Y-14948484D01*
X15329230Y-14948484D02*
X15348277Y-14948484D01*
X15567325Y-14815150D02*
X15567325Y-15015150D01*
X15567325Y-14824674D02*
X15586372Y-14815150D01*
X15586372Y-14815150D02*
X15624468Y-14815150D01*
X15624468Y-14815150D02*
X15643515Y-14824674D01*
X15643515Y-14824674D02*
X15653039Y-14834198D01*
X15653039Y-14834198D02*
X15662563Y-14853246D01*
X15662563Y-14853246D02*
X15662563Y-14910388D01*
X15662563Y-14910388D02*
X15653039Y-14929436D01*
X15653039Y-14929436D02*
X15643515Y-14938960D01*
X15643515Y-14938960D02*
X15624468Y-14948484D01*
X15624468Y-14948484D02*
X15586372Y-14948484D01*
X15586372Y-14948484D02*
X15567325Y-14938960D01*
X15776849Y-14948484D02*
X15757801Y-14938960D01*
X15757801Y-14938960D02*
X15748277Y-14919912D01*
X15748277Y-14919912D02*
X15748277Y-14748484D01*
X15938753Y-14948484D02*
X15938753Y-14843722D01*
X15938753Y-14843722D02*
X15929230Y-14824674D01*
X15929230Y-14824674D02*
X15910182Y-14815150D01*
X15910182Y-14815150D02*
X15872087Y-14815150D01*
X15872087Y-14815150D02*
X15853039Y-14824674D01*
X15938753Y-14938960D02*
X15919706Y-14948484D01*
X15919706Y-14948484D02*
X15872087Y-14948484D01*
X15872087Y-14948484D02*
X15853039Y-14938960D01*
X15853039Y-14938960D02*
X15843515Y-14919912D01*
X15843515Y-14919912D02*
X15843515Y-14900865D01*
X15843515Y-14900865D02*
X15853039Y-14881817D01*
X15853039Y-14881817D02*
X15872087Y-14872293D01*
X15872087Y-14872293D02*
X15919706Y-14872293D01*
X15919706Y-14872293D02*
X15938753Y-14862769D01*
X16005420Y-14815150D02*
X16081611Y-14815150D01*
X16033992Y-14748484D02*
X16033992Y-14919912D01*
X16033992Y-14919912D02*
X16043515Y-14938960D01*
X16043515Y-14938960D02*
X16062563Y-14948484D01*
X16062563Y-14948484D02*
X16081611Y-14948484D01*
X16224468Y-14938960D02*
X16205420Y-14948484D01*
X16205420Y-14948484D02*
X16167325Y-14948484D01*
X16167325Y-14948484D02*
X16148277Y-14938960D01*
X16148277Y-14938960D02*
X16138753Y-14919912D01*
X16138753Y-14919912D02*
X16138753Y-14843722D01*
X16138753Y-14843722D02*
X16148277Y-14824674D01*
X16148277Y-14824674D02*
X16167325Y-14815150D01*
X16167325Y-14815150D02*
X16205420Y-14815150D01*
X16205420Y-14815150D02*
X16224468Y-14824674D01*
X16224468Y-14824674D02*
X16233992Y-14843722D01*
X16233992Y-14843722D02*
X16233992Y-14862769D01*
X16233992Y-14862769D02*
X16138753Y-14881817D01*
X16405420Y-14948484D02*
X16405420Y-14748484D01*
X16405420Y-14938960D02*
X16386373Y-14948484D01*
X16386373Y-14948484D02*
X16348277Y-14948484D01*
X16348277Y-14948484D02*
X16329230Y-14938960D01*
X16329230Y-14938960D02*
X16319706Y-14929436D01*
X16319706Y-14929436D02*
X16310182Y-14910388D01*
X16310182Y-14910388D02*
X16310182Y-14853246D01*
X16310182Y-14853246D02*
X16319706Y-14834198D01*
X16319706Y-14834198D02*
X16329230Y-14824674D01*
X16329230Y-14824674D02*
X16348277Y-14815150D01*
X16348277Y-14815150D02*
X16386373Y-14815150D01*
X16386373Y-14815150D02*
X16405420Y-14824674D01*
X16481611Y-15024674D02*
X16491134Y-15015150D01*
X16491134Y-15015150D02*
X16510182Y-14986579D01*
X16510182Y-14986579D02*
X16519706Y-14967531D01*
X16519706Y-14967531D02*
X16529230Y-14938960D01*
X16529230Y-14938960D02*
X16538753Y-14891341D01*
X16538753Y-14891341D02*
X16538753Y-14853246D01*
X16538753Y-14853246D02*
X16529230Y-14805627D01*
X16529230Y-14805627D02*
X16519706Y-14777055D01*
X16519706Y-14777055D02*
X16510182Y-14758008D01*
X16510182Y-14758008D02*
X16491134Y-14729436D01*
X16491134Y-14729436D02*
X16481611Y-14719912D01*
X9787500Y-15237000D02*
X9887500Y-15137000D01*
X9787500Y-15037000D01*
X9687500Y-15137000D01*
X9787500Y-15237000D01*
X10138753Y-15047531D02*
X10148277Y-15038008D01*
X10148277Y-15038008D02*
X10167324Y-15028484D01*
X10167324Y-15028484D02*
X10214944Y-15028484D01*
X10214944Y-15028484D02*
X10233991Y-15038008D01*
X10233991Y-15038008D02*
X10243515Y-15047531D01*
X10243515Y-15047531D02*
X10253039Y-15066579D01*
X10253039Y-15066579D02*
X10253039Y-15085627D01*
X10253039Y-15085627D02*
X10243515Y-15114198D01*
X10243515Y-15114198D02*
X10129229Y-15228484D01*
X10129229Y-15228484D02*
X10253039Y-15228484D01*
X10338753Y-15209436D02*
X10348277Y-15218960D01*
X10348277Y-15218960D02*
X10338753Y-15228484D01*
X10338753Y-15228484D02*
X10329229Y-15218960D01*
X10329229Y-15218960D02*
X10338753Y-15209436D01*
X10338753Y-15209436D02*
X10338753Y-15228484D01*
X10538753Y-15228484D02*
X10424467Y-15228484D01*
X10481610Y-15228484D02*
X10481610Y-15028484D01*
X10481610Y-15028484D02*
X10462563Y-15057055D01*
X10462563Y-15057055D02*
X10443515Y-15076103D01*
X10443515Y-15076103D02*
X10424467Y-15085627D01*
X10662563Y-15028484D02*
X10681610Y-15028484D01*
X10681610Y-15028484D02*
X10700658Y-15038008D01*
X10700658Y-15038008D02*
X10710182Y-15047531D01*
X10710182Y-15047531D02*
X10719705Y-15066579D01*
X10719705Y-15066579D02*
X10729229Y-15104674D01*
X10729229Y-15104674D02*
X10729229Y-15152293D01*
X10729229Y-15152293D02*
X10719705Y-15190388D01*
X10719705Y-15190388D02*
X10710182Y-15209436D01*
X10710182Y-15209436D02*
X10700658Y-15218960D01*
X10700658Y-15218960D02*
X10681610Y-15228484D01*
X10681610Y-15228484D02*
X10662563Y-15228484D01*
X10662563Y-15228484D02*
X10643515Y-15218960D01*
X10643515Y-15218960D02*
X10633991Y-15209436D01*
X10633991Y-15209436D02*
X10624467Y-15190388D01*
X10624467Y-15190388D02*
X10614944Y-15152293D01*
X10614944Y-15152293D02*
X10614944Y-15104674D01*
X10614944Y-15104674D02*
X10624467Y-15066579D01*
X10624467Y-15066579D02*
X10633991Y-15047531D01*
X10633991Y-15047531D02*
X10643515Y-15038008D01*
X10643515Y-15038008D02*
X10662563Y-15028484D01*
X10853039Y-15028484D02*
X10872086Y-15028484D01*
X10872086Y-15028484D02*
X10891134Y-15038008D01*
X10891134Y-15038008D02*
X10900658Y-15047531D01*
X10900658Y-15047531D02*
X10910182Y-15066579D01*
X10910182Y-15066579D02*
X10919705Y-15104674D01*
X10919705Y-15104674D02*
X10919705Y-15152293D01*
X10919705Y-15152293D02*
X10910182Y-15190388D01*
X10910182Y-15190388D02*
X10900658Y-15209436D01*
X10900658Y-15209436D02*
X10891134Y-15218960D01*
X10891134Y-15218960D02*
X10872086Y-15228484D01*
X10872086Y-15228484D02*
X10853039Y-15228484D01*
X10853039Y-15228484D02*
X10833991Y-15218960D01*
X10833991Y-15218960D02*
X10824467Y-15209436D01*
X10824467Y-15209436D02*
X10814944Y-15190388D01*
X10814944Y-15190388D02*
X10805420Y-15152293D01*
X10805420Y-15152293D02*
X10805420Y-15104674D01*
X10805420Y-15104674D02*
X10814944Y-15066579D01*
X10814944Y-15066579D02*
X10824467Y-15047531D01*
X10824467Y-15047531D02*
X10833991Y-15038008D01*
X10833991Y-15038008D02*
X10853039Y-15028484D01*
X11005420Y-15228484D02*
X11005420Y-15095150D01*
X11005420Y-15114198D02*
X11014944Y-15104674D01*
X11014944Y-15104674D02*
X11033991Y-15095150D01*
X11033991Y-15095150D02*
X11062563Y-15095150D01*
X11062563Y-15095150D02*
X11081610Y-15104674D01*
X11081610Y-15104674D02*
X11091134Y-15123722D01*
X11091134Y-15123722D02*
X11091134Y-15228484D01*
X11091134Y-15123722D02*
X11100658Y-15104674D01*
X11100658Y-15104674D02*
X11119705Y-15095150D01*
X11119705Y-15095150D02*
X11148277Y-15095150D01*
X11148277Y-15095150D02*
X11167325Y-15104674D01*
X11167325Y-15104674D02*
X11176848Y-15123722D01*
X11176848Y-15123722D02*
X11176848Y-15228484D01*
X11272086Y-15228484D02*
X11272086Y-15095150D01*
X11272086Y-15114198D02*
X11281610Y-15104674D01*
X11281610Y-15104674D02*
X11300658Y-15095150D01*
X11300658Y-15095150D02*
X11329229Y-15095150D01*
X11329229Y-15095150D02*
X11348277Y-15104674D01*
X11348277Y-15104674D02*
X11357801Y-15123722D01*
X11357801Y-15123722D02*
X11357801Y-15228484D01*
X11357801Y-15123722D02*
X11367324Y-15104674D01*
X11367324Y-15104674D02*
X11386372Y-15095150D01*
X11386372Y-15095150D02*
X11414943Y-15095150D01*
X11414943Y-15095150D02*
X11433991Y-15104674D01*
X11433991Y-15104674D02*
X11443515Y-15123722D01*
X11443515Y-15123722D02*
X11443515Y-15228484D01*
X11833991Y-15018960D02*
X11662563Y-15276103D01*
X12091134Y-15028484D02*
X12110182Y-15028484D01*
X12110182Y-15028484D02*
X12129229Y-15038008D01*
X12129229Y-15038008D02*
X12138753Y-15047531D01*
X12138753Y-15047531D02*
X12148277Y-15066579D01*
X12148277Y-15066579D02*
X12157801Y-15104674D01*
X12157801Y-15104674D02*
X12157801Y-15152293D01*
X12157801Y-15152293D02*
X12148277Y-15190388D01*
X12148277Y-15190388D02*
X12138753Y-15209436D01*
X12138753Y-15209436D02*
X12129229Y-15218960D01*
X12129229Y-15218960D02*
X12110182Y-15228484D01*
X12110182Y-15228484D02*
X12091134Y-15228484D01*
X12091134Y-15228484D02*
X12072086Y-15218960D01*
X12072086Y-15218960D02*
X12062563Y-15209436D01*
X12062563Y-15209436D02*
X12053039Y-15190388D01*
X12053039Y-15190388D02*
X12043515Y-15152293D01*
X12043515Y-15152293D02*
X12043515Y-15104674D01*
X12043515Y-15104674D02*
X12053039Y-15066579D01*
X12053039Y-15066579D02*
X12062563Y-15047531D01*
X12062563Y-15047531D02*
X12072086Y-15038008D01*
X12072086Y-15038008D02*
X12091134Y-15028484D01*
X12243515Y-15209436D02*
X12253039Y-15218960D01*
X12253039Y-15218960D02*
X12243515Y-15228484D01*
X12243515Y-15228484D02*
X12233991Y-15218960D01*
X12233991Y-15218960D02*
X12243515Y-15209436D01*
X12243515Y-15209436D02*
X12243515Y-15228484D01*
X12376848Y-15028484D02*
X12395896Y-15028484D01*
X12395896Y-15028484D02*
X12414944Y-15038008D01*
X12414944Y-15038008D02*
X12424467Y-15047531D01*
X12424467Y-15047531D02*
X12433991Y-15066579D01*
X12433991Y-15066579D02*
X12443515Y-15104674D01*
X12443515Y-15104674D02*
X12443515Y-15152293D01*
X12443515Y-15152293D02*
X12433991Y-15190388D01*
X12433991Y-15190388D02*
X12424467Y-15209436D01*
X12424467Y-15209436D02*
X12414944Y-15218960D01*
X12414944Y-15218960D02*
X12395896Y-15228484D01*
X12395896Y-15228484D02*
X12376848Y-15228484D01*
X12376848Y-15228484D02*
X12357801Y-15218960D01*
X12357801Y-15218960D02*
X12348277Y-15209436D01*
X12348277Y-15209436D02*
X12338753Y-15190388D01*
X12338753Y-15190388D02*
X12329229Y-15152293D01*
X12329229Y-15152293D02*
X12329229Y-15104674D01*
X12329229Y-15104674D02*
X12338753Y-15066579D01*
X12338753Y-15066579D02*
X12348277Y-15047531D01*
X12348277Y-15047531D02*
X12357801Y-15038008D01*
X12357801Y-15038008D02*
X12376848Y-15028484D01*
X12557801Y-15114198D02*
X12538753Y-15104674D01*
X12538753Y-15104674D02*
X12529229Y-15095150D01*
X12529229Y-15095150D02*
X12519706Y-15076103D01*
X12519706Y-15076103D02*
X12519706Y-15066579D01*
X12519706Y-15066579D02*
X12529229Y-15047531D01*
X12529229Y-15047531D02*
X12538753Y-15038008D01*
X12538753Y-15038008D02*
X12557801Y-15028484D01*
X12557801Y-15028484D02*
X12595896Y-15028484D01*
X12595896Y-15028484D02*
X12614944Y-15038008D01*
X12614944Y-15038008D02*
X12624467Y-15047531D01*
X12624467Y-15047531D02*
X12633991Y-15066579D01*
X12633991Y-15066579D02*
X12633991Y-15076103D01*
X12633991Y-15076103D02*
X12624467Y-15095150D01*
X12624467Y-15095150D02*
X12614944Y-15104674D01*
X12614944Y-15104674D02*
X12595896Y-15114198D01*
X12595896Y-15114198D02*
X12557801Y-15114198D01*
X12557801Y-15114198D02*
X12538753Y-15123722D01*
X12538753Y-15123722D02*
X12529229Y-15133246D01*
X12529229Y-15133246D02*
X12519706Y-15152293D01*
X12519706Y-15152293D02*
X12519706Y-15190388D01*
X12519706Y-15190388D02*
X12529229Y-15209436D01*
X12529229Y-15209436D02*
X12538753Y-15218960D01*
X12538753Y-15218960D02*
X12557801Y-15228484D01*
X12557801Y-15228484D02*
X12595896Y-15228484D01*
X12595896Y-15228484D02*
X12614944Y-15218960D01*
X12614944Y-15218960D02*
X12624467Y-15209436D01*
X12624467Y-15209436D02*
X12633991Y-15190388D01*
X12633991Y-15190388D02*
X12633991Y-15152293D01*
X12633991Y-15152293D02*
X12624467Y-15133246D01*
X12624467Y-15133246D02*
X12614944Y-15123722D01*
X12614944Y-15123722D02*
X12595896Y-15114198D01*
X12710182Y-15047531D02*
X12719706Y-15038008D01*
X12719706Y-15038008D02*
X12738753Y-15028484D01*
X12738753Y-15028484D02*
X12786372Y-15028484D01*
X12786372Y-15028484D02*
X12805420Y-15038008D01*
X12805420Y-15038008D02*
X12814944Y-15047531D01*
X12814944Y-15047531D02*
X12824467Y-15066579D01*
X12824467Y-15066579D02*
X12824467Y-15085627D01*
X12824467Y-15085627D02*
X12814944Y-15114198D01*
X12814944Y-15114198D02*
X12700658Y-15228484D01*
X12700658Y-15228484D02*
X12824467Y-15228484D01*
X12891134Y-15028484D02*
X13024467Y-15028484D01*
X13024467Y-15028484D02*
X12938753Y-15228484D01*
X13091134Y-15028484D02*
X13091134Y-15066579D01*
X13167325Y-15028484D02*
X13167325Y-15066579D01*
X13462563Y-15304674D02*
X13453039Y-15295150D01*
X13453039Y-15295150D02*
X13433991Y-15266579D01*
X13433991Y-15266579D02*
X13424468Y-15247531D01*
X13424468Y-15247531D02*
X13414944Y-15218960D01*
X13414944Y-15218960D02*
X13405420Y-15171341D01*
X13405420Y-15171341D02*
X13405420Y-15133246D01*
X13405420Y-15133246D02*
X13414944Y-15085627D01*
X13414944Y-15085627D02*
X13424468Y-15057055D01*
X13424468Y-15057055D02*
X13433991Y-15038008D01*
X13433991Y-15038008D02*
X13453039Y-15009436D01*
X13453039Y-15009436D02*
X13462563Y-14999912D01*
X13643515Y-15228484D02*
X13529229Y-15228484D01*
X13586372Y-15228484D02*
X13586372Y-15028484D01*
X13586372Y-15028484D02*
X13567325Y-15057055D01*
X13567325Y-15057055D02*
X13548277Y-15076103D01*
X13548277Y-15076103D02*
X13529229Y-15085627D01*
X13881610Y-15228484D02*
X13881610Y-15028484D01*
X13967325Y-15228484D02*
X13967325Y-15123722D01*
X13967325Y-15123722D02*
X13957801Y-15104674D01*
X13957801Y-15104674D02*
X13938753Y-15095150D01*
X13938753Y-15095150D02*
X13910182Y-15095150D01*
X13910182Y-15095150D02*
X13891134Y-15104674D01*
X13891134Y-15104674D02*
X13881610Y-15114198D01*
X14091134Y-15228484D02*
X14072087Y-15218960D01*
X14072087Y-15218960D02*
X14062563Y-15209436D01*
X14062563Y-15209436D02*
X14053039Y-15190388D01*
X14053039Y-15190388D02*
X14053039Y-15133246D01*
X14053039Y-15133246D02*
X14062563Y-15114198D01*
X14062563Y-15114198D02*
X14072087Y-15104674D01*
X14072087Y-15104674D02*
X14091134Y-15095150D01*
X14091134Y-15095150D02*
X14119706Y-15095150D01*
X14119706Y-15095150D02*
X14138753Y-15104674D01*
X14138753Y-15104674D02*
X14148277Y-15114198D01*
X14148277Y-15114198D02*
X14157801Y-15133246D01*
X14157801Y-15133246D02*
X14157801Y-15190388D01*
X14157801Y-15190388D02*
X14148277Y-15209436D01*
X14148277Y-15209436D02*
X14138753Y-15218960D01*
X14138753Y-15218960D02*
X14119706Y-15228484D01*
X14119706Y-15228484D02*
X14091134Y-15228484D01*
X14272087Y-15228484D02*
X14253039Y-15218960D01*
X14253039Y-15218960D02*
X14243515Y-15199912D01*
X14243515Y-15199912D02*
X14243515Y-15028484D01*
X14424468Y-15218960D02*
X14405420Y-15228484D01*
X14405420Y-15228484D02*
X14367325Y-15228484D01*
X14367325Y-15228484D02*
X14348277Y-15218960D01*
X14348277Y-15218960D02*
X14338753Y-15199912D01*
X14338753Y-15199912D02*
X14338753Y-15123722D01*
X14338753Y-15123722D02*
X14348277Y-15104674D01*
X14348277Y-15104674D02*
X14367325Y-15095150D01*
X14367325Y-15095150D02*
X14405420Y-15095150D01*
X14405420Y-15095150D02*
X14424468Y-15104674D01*
X14424468Y-15104674D02*
X14433991Y-15123722D01*
X14433991Y-15123722D02*
X14433991Y-15142769D01*
X14433991Y-15142769D02*
X14338753Y-15161817D01*
X14500658Y-15304674D02*
X14510182Y-15295150D01*
X14510182Y-15295150D02*
X14529230Y-15266579D01*
X14529230Y-15266579D02*
X14538753Y-15247531D01*
X14538753Y-15247531D02*
X14548277Y-15218960D01*
X14548277Y-15218960D02*
X14557801Y-15171341D01*
X14557801Y-15171341D02*
X14557801Y-15133246D01*
X14557801Y-15133246D02*
X14548277Y-15085627D01*
X14548277Y-15085627D02*
X14538753Y-15057055D01*
X14538753Y-15057055D02*
X14529230Y-15038008D01*
X14529230Y-15038008D02*
X14510182Y-15009436D01*
X14510182Y-15009436D02*
X14500658Y-14999912D01*
X14862563Y-15304674D02*
X14853039Y-15295150D01*
X14853039Y-15295150D02*
X14833991Y-15266579D01*
X14833991Y-15266579D02*
X14824468Y-15247531D01*
X14824468Y-15247531D02*
X14814944Y-15218960D01*
X14814944Y-15218960D02*
X14805420Y-15171341D01*
X14805420Y-15171341D02*
X14805420Y-15133246D01*
X14805420Y-15133246D02*
X14814944Y-15085627D01*
X14814944Y-15085627D02*
X14824468Y-15057055D01*
X14824468Y-15057055D02*
X14833991Y-15038008D01*
X14833991Y-15038008D02*
X14853039Y-15009436D01*
X14853039Y-15009436D02*
X14862563Y-14999912D01*
X14938753Y-15095150D02*
X14938753Y-15228484D01*
X14938753Y-15114198D02*
X14948277Y-15104674D01*
X14948277Y-15104674D02*
X14967325Y-15095150D01*
X14967325Y-15095150D02*
X14995896Y-15095150D01*
X14995896Y-15095150D02*
X15014944Y-15104674D01*
X15014944Y-15104674D02*
X15024468Y-15123722D01*
X15024468Y-15123722D02*
X15024468Y-15228484D01*
X15148277Y-15228484D02*
X15129230Y-15218960D01*
X15129230Y-15218960D02*
X15119706Y-15209436D01*
X15119706Y-15209436D02*
X15110182Y-15190388D01*
X15110182Y-15190388D02*
X15110182Y-15133246D01*
X15110182Y-15133246D02*
X15119706Y-15114198D01*
X15119706Y-15114198D02*
X15129230Y-15104674D01*
X15129230Y-15104674D02*
X15148277Y-15095150D01*
X15148277Y-15095150D02*
X15176849Y-15095150D01*
X15176849Y-15095150D02*
X15195896Y-15104674D01*
X15195896Y-15104674D02*
X15205420Y-15114198D01*
X15205420Y-15114198D02*
X15214944Y-15133246D01*
X15214944Y-15133246D02*
X15214944Y-15190388D01*
X15214944Y-15190388D02*
X15205420Y-15209436D01*
X15205420Y-15209436D02*
X15195896Y-15218960D01*
X15195896Y-15218960D02*
X15176849Y-15228484D01*
X15176849Y-15228484D02*
X15148277Y-15228484D01*
X15272087Y-15095150D02*
X15348277Y-15095150D01*
X15300658Y-15028484D02*
X15300658Y-15199912D01*
X15300658Y-15199912D02*
X15310182Y-15218960D01*
X15310182Y-15218960D02*
X15329230Y-15228484D01*
X15329230Y-15228484D02*
X15348277Y-15228484D01*
X15567325Y-15095150D02*
X15567325Y-15295150D01*
X15567325Y-15104674D02*
X15586372Y-15095150D01*
X15586372Y-15095150D02*
X15624468Y-15095150D01*
X15624468Y-15095150D02*
X15643515Y-15104674D01*
X15643515Y-15104674D02*
X15653039Y-15114198D01*
X15653039Y-15114198D02*
X15662563Y-15133246D01*
X15662563Y-15133246D02*
X15662563Y-15190388D01*
X15662563Y-15190388D02*
X15653039Y-15209436D01*
X15653039Y-15209436D02*
X15643515Y-15218960D01*
X15643515Y-15218960D02*
X15624468Y-15228484D01*
X15624468Y-15228484D02*
X15586372Y-15228484D01*
X15586372Y-15228484D02*
X15567325Y-15218960D01*
X15776849Y-15228484D02*
X15757801Y-15218960D01*
X15757801Y-15218960D02*
X15748277Y-15199912D01*
X15748277Y-15199912D02*
X15748277Y-15028484D01*
X15938753Y-15228484D02*
X15938753Y-15123722D01*
X15938753Y-15123722D02*
X15929230Y-15104674D01*
X15929230Y-15104674D02*
X15910182Y-15095150D01*
X15910182Y-15095150D02*
X15872087Y-15095150D01*
X15872087Y-15095150D02*
X15853039Y-15104674D01*
X15938753Y-15218960D02*
X15919706Y-15228484D01*
X15919706Y-15228484D02*
X15872087Y-15228484D01*
X15872087Y-15228484D02*
X15853039Y-15218960D01*
X15853039Y-15218960D02*
X15843515Y-15199912D01*
X15843515Y-15199912D02*
X15843515Y-15180865D01*
X15843515Y-15180865D02*
X15853039Y-15161817D01*
X15853039Y-15161817D02*
X15872087Y-15152293D01*
X15872087Y-15152293D02*
X15919706Y-15152293D01*
X15919706Y-15152293D02*
X15938753Y-15142769D01*
X16005420Y-15095150D02*
X16081611Y-15095150D01*
X16033992Y-15028484D02*
X16033992Y-15199912D01*
X16033992Y-15199912D02*
X16043515Y-15218960D01*
X16043515Y-15218960D02*
X16062563Y-15228484D01*
X16062563Y-15228484D02*
X16081611Y-15228484D01*
X16224468Y-15218960D02*
X16205420Y-15228484D01*
X16205420Y-15228484D02*
X16167325Y-15228484D01*
X16167325Y-15228484D02*
X16148277Y-15218960D01*
X16148277Y-15218960D02*
X16138753Y-15199912D01*
X16138753Y-15199912D02*
X16138753Y-15123722D01*
X16138753Y-15123722D02*
X16148277Y-15104674D01*
X16148277Y-15104674D02*
X16167325Y-15095150D01*
X16167325Y-15095150D02*
X16205420Y-15095150D01*
X16205420Y-15095150D02*
X16224468Y-15104674D01*
X16224468Y-15104674D02*
X16233992Y-15123722D01*
X16233992Y-15123722D02*
X16233992Y-15142769D01*
X16233992Y-15142769D02*
X16138753Y-15161817D01*
X16405420Y-15228484D02*
X16405420Y-15028484D01*
X16405420Y-15218960D02*
X16386373Y-15228484D01*
X16386373Y-15228484D02*
X16348277Y-15228484D01*
X16348277Y-15228484D02*
X16329230Y-15218960D01*
X16329230Y-15218960D02*
X16319706Y-15209436D01*
X16319706Y-15209436D02*
X16310182Y-15190388D01*
X16310182Y-15190388D02*
X16310182Y-15133246D01*
X16310182Y-15133246D02*
X16319706Y-15114198D01*
X16319706Y-15114198D02*
X16329230Y-15104674D01*
X16329230Y-15104674D02*
X16348277Y-15095150D01*
X16348277Y-15095150D02*
X16386373Y-15095150D01*
X16386373Y-15095150D02*
X16405420Y-15104674D01*
X16481611Y-15304674D02*
X16491134Y-15295150D01*
X16491134Y-15295150D02*
X16510182Y-15266579D01*
X16510182Y-15266579D02*
X16519706Y-15247531D01*
X16519706Y-15247531D02*
X16529230Y-15218960D01*
X16529230Y-15218960D02*
X16538753Y-15171341D01*
X16538753Y-15171341D02*
X16538753Y-15133246D01*
X16538753Y-15133246D02*
X16529230Y-15085627D01*
X16529230Y-15085627D02*
X16519706Y-15057055D01*
X16519706Y-15057055D02*
X16510182Y-15038008D01*
X16510182Y-15038008D02*
X16491134Y-15009436D01*
X16491134Y-15009436D02*
X16481611Y-14999912D01*
M02*
